# Tiled2Unity generated file. Do not modify by hand.
# Wavefront file for 'evil_castle_mesh_0004.obj'

# Vertices (Count = 16)
v -576 -240 0
v -592 -240 0
v -592 -224 0
v -576 -224 0
v -144 -240 0
v -160 -240 0
v -160 -224 0
v -144 -224 0
v -576 -496 0
v -592 -496 0
v -592 -480 0
v -576 -480 0
v -144 -496 0
v -160 -496 0
v -160 -480 0
v -144 -480 0

# Texture cooridinates (Count = 4)
vt 0.5971074 0.904943
vt 0.6136364 0.904943
vt 0.6136364 0.9353612
vt 0.5971074 0.9353612

# Normal
vn 0 0 -1

# Mesh description
g evil_castle_mesh_0004

# Faces
f 1/1/1 2/2/1 3/3/1 4/4/1
f 5/1/1 6/2/1 7/3/1 8/4/1
f 9/1/1 10/2/1 11/3/1 12/4/1
f 13/1/1 14/2/1 15/3/1 16/4/1

