# Tiled2Unity generated file. Do not modify by hand.
# Wavefront file for 'house_mesh_0003.obj'

# Vertices (Count = 132)
v -16 -64 0
v -32 -64 0
v -32 -48 0
v -16 -48 0
v -32 -80 0
v -48 -80 0
v -48 -64 0
v -32 -64 0
v -16 -96 0
v -32 -96 0
v -32 -80 0
v -16 -80 0
v -144 -208 0
v -160 -208 0
v -160 -192 0
v -144 -192 0
v -112 -208 0
v -128 -208 0
v -128 -192 0
v -112 -192 0
v -144 -224 0
v -160 -224 0
v -160 -208 0
v -144 -208 0
v -112 -224 0
v -128 -224 0
v -128 -208 0
v -112 -208 0
v -16 -224 0
v -32 -224 0
v -32 -208 0
v -16 -208 0
v -144 -240 0
v -160 -240 0
v -160 -224 0
v -144 -224 0
v -112 -240 0
v -128 -240 0
v -128 -224 0
v -112 -224 0
v -16 -240 0
v -32 -240 0
v -32 -224 0
v -16 -224 0
v -144 -256 0
v -160 -256 0
v -160 -240 0
v -144 -240 0
v -80 -272 0
v -96 -272 0
v -96 -256 0
v -80 -256 0
v -64 -272 0
v -80 -272 0
v -80 -256 0
v -64 -256 0
v -48 -272 0
v -64 -272 0
v -64 -256 0
v -48 -256 0
v -112 -336 0
v -128 -336 0
v -128 -320 0
v -112 -320 0
v -96 -336 0
v -112 -336 0
v -112 -320 0
v -96 -320 0
v -112 -352 0
v -128 -352 0
v -128 -336 0
v -112 -336 0
v -96 -352 0
v -112 -352 0
v -112 -336 0
v -96 -336 0
v -112 -368 0
v -128 -368 0
v -128 -352 0
v -112 -352 0
v -96 -368 0
v -112 -368 0
v -112 -352 0
v -96 -352 0
v -112 -384 0
v -128 -384 0
v -128 -368 0
v -112 -368 0
v -96 -384 0
v -112 -384 0
v -112 -368 0
v -96 -368 0
v -112 -400 0
v -128 -400 0
v -128 -384 0
v -112 -384 0
v -96 -400 0
v -112 -400 0
v -112 -384 0
v -96 -384 0
v -64 -400 0
v -80 -400 0
v -80 -384 0
v -64 -384 0
v -16 -400 0
v -32 -400 0
v -32 -384 0
v -16 -384 0
v -112 -416 0
v -128 -416 0
v -128 -400 0
v -112 -400 0
v -96 -416 0
v -112 -416 0
v -112 -400 0
v -96 -400 0
v -16 -416 0
v -32 -416 0
v -32 -400 0
v -16 -400 0
v -112 -432 0
v -128 -432 0
v -128 -416 0
v -112 -416 0
v -96 -432 0
v -112 -432 0
v -112 -416 0
v -96 -416 0
v -16 -432 0
v -32 -432 0
v -32 -416 0
v -16 -416 0

# Texture cooridinates (Count = 68)
vt 0 0.8360656
vt 0.03501094 0.8360656
vt 0.03501094 0.8885246
vt 0 0.8885246
vt 0.1115974 0.7803279
vt 0.1466083 0.7803279
vt 0.1466083 0.8327869
vt 0.1115974 0.8327869
vt 0.03719912 0.7803279
vt 0.07221007 0.7803279
vt 0.07221007 0.8327869
vt 0.03719912 0.8327869
vt 0.6323851 0.7803279
vt 0.6673961 0.7803279
vt 0.6673961 0.8327869
vt 0.6323851 0.8327869
vt 0.9649891 0.3344262
vt 0.9299781 0.3344262
vt 0.9299781 0.3868852
vt 0.9649891 0.3868852
vt 0.892779 0.2786885
vt 0.9277899 0.2786885
vt 0.9277899 0.3311476
vt 0.892779 0.3311476
vt 0.4463895 0.1672131
vt 0.4814004 0.1672131
vt 0.4814004 0.2196721
vt 0.4463895 0.2196721
vt 0.9649891 0.2786885
vt 0.9299781 0.2786885
vt 0.9299781 0.3311476
vt 0.9649891 0.3311476
vt 0.4463895 0.1114754
vt 0.4814004 0.1114754
vt 0.4814004 0.1639344
vt 0.4463895 0.1639344
vt 0.9299781 0.1672131
vt 0.9649891 0.1672131
vt 0.9649891 0.2196721
vt 0.9299781 0.2196721
vt 0.892779 0.1672131
vt 0.9277899 0.1672131
vt 0.9277899 0.2196721
vt 0.892779 0.2196721
vt 0.8555799 0.1672131
vt 0.8905908 0.1672131
vt 0.8905908 0.2196721
vt 0.8555799 0.2196721
vt 0.9299781 0.8918033
vt 0.9649891 0.8918033
vt 0.9649891 0.9442623
vt 0.9299781 0.9442623
vt 0.8555799 0.8918033
vt 0.8905908 0.8918033
vt 0.8905908 0.9442623
vt 0.8555799 0.9442623
vt 0.4835886 0.1672131
vt 0.5185996 0.1672131
vt 0.5185996 0.2196721
vt 0.4835886 0.2196721
vt 0.8555799 0.2786885
vt 0.8905908 0.2786885
vt 0.8905908 0.3311476
vt 0.8555799 0.3311476
vt 0.9299781 0.2229508
vt 0.9649891 0.2229508
vt 0.9649891 0.2754098
vt 0.9299781 0.2754098

# Normal
vn 0 0 -1

# Mesh description
g house_mesh_0003

# Faces
f 1/1/1 2/2/1 3/3/1 4/4/1
f 5/5/1 6/6/1 7/7/1 8/8/1
f 9/9/1 10/10/1 11/11/1 12/12/1
f 13/13/1 14/14/1 15/15/1 16/16/1
f 17/17/1 18/18/1 19/19/1 20/20/1
f 21/13/1 22/14/1 23/15/1 24/16/1
f 25/21/1 26/22/1 27/23/1 28/24/1
f 29/25/1 30/26/1 31/27/1 32/28/1
f 33/13/1 34/14/1 35/15/1 36/16/1
f 37/29/1 38/30/1 39/31/1 40/32/1
f 41/33/1 42/34/1 43/35/1 44/36/1
f 45/13/1 46/14/1 47/15/1 48/16/1
f 49/37/1 50/38/1 51/39/1 52/40/1
f 53/41/1 54/42/1 55/43/1 56/44/1
f 57/45/1 58/46/1 59/47/1 60/48/1
f 61/49/1 62/50/1 63/51/1 64/52/1
f 65/53/1 66/54/1 67/55/1 68/56/1
f 69/49/1 70/50/1 71/51/1 72/52/1
f 73/53/1 74/54/1 75/55/1 76/56/1
f 77/49/1 78/50/1 79/51/1 80/52/1
f 81/53/1 82/54/1 83/55/1 84/56/1
f 85/49/1 86/50/1 87/51/1 88/52/1
f 89/53/1 90/54/1 91/55/1 92/56/1
f 93/49/1 94/50/1 95/51/1 96/52/1
f 97/53/1 98/54/1 99/55/1 100/56/1
f 101/57/1 102/58/1 103/59/1 104/60/1
f 105/61/1 106/62/1 107/63/1 108/64/1
f 109/49/1 110/50/1 111/51/1 112/52/1
f 113/53/1 114/54/1 115/55/1 116/56/1
f 117/61/1 118/62/1 119/63/1 120/64/1
f 121/49/1 122/50/1 123/51/1 124/52/1
f 125/53/1 126/54/1 127/55/1 128/56/1
f 129/65/1 130/66/1 131/67/1 132/68/1

