# Tiled2Unity generated file. Do not modify by hand.
# Wavefront file for 'house_mesh_0008.obj'

# Vertices (Count = 36)
v -144 -128 0
v -160 -128 0
v -160 -112 0
v -144 -112 0
v -80 -128 0
v -96 -128 0
v -96 -112 0
v -80 -112 0
v -128 -336 0
v -144 -336 0
v -144 -320 0
v -128 -320 0
v -128 -352 0
v -144 -352 0
v -144 -336 0
v -128 -336 0
v -128 -368 0
v -144 -368 0
v -144 -352 0
v -128 -352 0
v -128 -384 0
v -144 -384 0
v -144 -368 0
v -128 -368 0
v -128 -400 0
v -144 -400 0
v -144 -384 0
v -128 -384 0
v -128 -416 0
v -144 -416 0
v -144 -400 0
v -128 -400 0
v -128 -432 0
v -144 -432 0
v -144 -416 0
v -128 -416 0

# Texture cooridinates (Count = 8)
vt 0.8254132 0.8079848
vt 0.8419421 0.8079848
vt 0.8419421 0.838403
vt 0.8254132 0.838403
vt 0.8956612 0.2262357
vt 0.9121901 0.2262357
vt 0.9121901 0.256654
vt 0.8956612 0.256654

# Normal
vn 0 0 -1

# Mesh description
g house_mesh_0008

# Faces
f 1/1/1 2/2/1 3/3/1 4/4/1
f 5/1/1 6/2/1 7/3/1 8/4/1
f 9/5/1 10/6/1 11/7/1 12/8/1
f 13/5/1 14/6/1 15/7/1 16/8/1
f 17/5/1 18/6/1 19/7/1 20/8/1
f 21/5/1 22/6/1 23/7/1 24/8/1
f 25/5/1 26/6/1 27/7/1 28/8/1
f 29/5/1 30/6/1 31/7/1 32/8/1
f 33/5/1 34/6/1 35/7/1 36/8/1

