# Tiled2Unity generated file. Do not modify by hand.
# Wavefront file for 'Inside-Volcano_mesh_0008.obj'

# Vertices (Count = 24)
v -496 -592 0
v -512 -592 0
v -512 -576 0
v -496 -576 0
v -464 -592 0
v -480 -592 0
v -480 -576 0
v -464 -576 0
v -496 -608 0
v -512 -608 0
v -512 -592 0
v -496 -592 0
v -464 -608 0
v -480 -608 0
v -480 -592 0
v -464 -592 0
v -496 -624 0
v -512 -624 0
v -512 -608 0
v -496 -608 0
v -464 -624 0
v -480 -624 0
v -480 -608 0
v -464 -608 0

# Texture cooridinates (Count = 8)
vt 0.8148148 0.3349754
vt 0.8148148 0.4137931
vt 0.832244 0.4137931
vt 0.832244 0.3349754
vt 0.01851852 0.4187192
vt 0.03594771 0.4187192
vt 0.03594771 0.497537
vt 0.01851852 0.497537

# Normal
vn 0 0 -1

# Mesh description
g Inside-Volcano_mesh_0008

# Faces
f 1/1/1 2/2/1 3/3/1 4/4/1
f 5/5/1 6/6/1 7/7/1 8/8/1
f 9/1/1 10/2/1 11/3/1 12/4/1
f 13/5/1 14/6/1 15/7/1 16/8/1
f 17/1/1 18/2/1 19/3/1 20/4/1
f 21/5/1 22/6/1 23/7/1 24/8/1

