# Tiled2Unity generated file. Do not modify by hand.
# Wavefront file for 'Inside-Volcano_mesh_0009.obj'

# Vertices (Count = 80)
v -128 -80 0
v -144 -80 0
v -144 -64 0
v -128 -64 0
v -80 -208 0
v -96 -208 0
v -96 -192 0
v -80 -192 0
v -288 -256 0
v -304 -256 0
v -304 -240 0
v -288 -240 0
v -320 -288 0
v -336 -288 0
v -336 -272 0
v -320 -272 0
v -48 -288 0
v -64 -288 0
v -64 -272 0
v -48 -272 0
v -320 -304 0
v -336 -304 0
v -336 -288 0
v -320 -288 0
v -48 -304 0
v -64 -304 0
v -64 -288 0
v -48 -288 0
v -320 -320 0
v -336 -320 0
v -336 -304 0
v -320 -304 0
v -80 -320 0
v -96 -320 0
v -96 -304 0
v -80 -304 0
v -48 -320 0
v -64 -320 0
v -64 -304 0
v -48 -304 0
v -320 -336 0
v -336 -336 0
v -336 -320 0
v -320 -320 0
v -48 -336 0
v -64 -336 0
v -64 -320 0
v -48 -320 0
v -320 -352 0
v -336 -352 0
v -336 -336 0
v -320 -336 0
v -48 -352 0
v -64 -352 0
v -64 -336 0
v -48 -336 0
v -48 -368 0
v -64 -368 0
v -64 -352 0
v -48 -352 0
v -320 -384 0
v -336 -384 0
v -336 -368 0
v -320 -368 0
v -48 -384 0
v -64 -384 0
v -64 -368 0
v -48 -368 0
v -320 -400 0
v -336 -400 0
v -336 -384 0
v -320 -384 0
v -304 -400 0
v -320 -400 0
v -320 -384 0
v -304 -384 0
v -48 -400 0
v -64 -400 0
v -64 -384 0
v -48 -384 0

# Texture cooridinates (Count = 28)
vt 0.5182927 0.05573773
vt 0.550813 0.05573773
vt 0.550813 0.1081967
vt 0.5182927 0.1081967
vt 0.449187 0.05573773
vt 0.4817073 0.05573773
vt 0.4817073 0.1081967
vt 0.449187 0.1081967
vt 0 0.6688524
vt 0.03252032 0.6688524
vt 0.03252032 0.7213115
vt 0 0.7213115
vt 0.1036585 0.6688524
vt 0.1361789 0.6688524
vt 0.1361789 0.7213115
vt 0.1036585 0.7213115
vt 0.1036585 0.6131147
vt 0.1361789 0.6131147
vt 0.1361789 0.6655738
vt 0.1036585 0.6655738
vt 0 0.6131147
vt 0.03252032 0.6131147
vt 0.03252032 0.6655738
vt 0 0.6655738
vt 0.1382114 0.6131147
vt 0.1707317 0.6131147
vt 0.1707317 0.6655738
vt 0.1382114 0.6655738

# Normal
vn 0 0 -1

# Mesh description
g Inside-Volcano_mesh_0009

# Faces
f 1/1/1 2/2/1 3/3/1 4/4/1
f 5/5/1 6/6/1 7/7/1 8/8/1
f 9/5/1 10/6/1 11/7/1 12/8/1
f 13/9/1 14/10/1 15/11/1 16/12/1
f 17/9/1 18/10/1 19/11/1 20/12/1
f 21/13/1 22/14/1 23/15/1 24/16/1
f 25/17/1 26/18/1 27/19/1 28/20/1
f 29/17/1 30/18/1 31/19/1 32/20/1
f 33/5/1 34/6/1 35/7/1 36/8/1
f 37/13/1 38/14/1 39/15/1 40/16/1
f 41/13/1 42/14/1 43/15/1 44/16/1
f 45/17/1 46/18/1 47/19/1 48/20/1
f 49/21/1 50/22/1 51/23/1 52/24/1
f 53/21/1 54/22/1 55/23/1 56/24/1
f 57/25/1 58/26/1 59/27/1 60/28/1
f 61/25/1 62/26/1 63/27/1 64/28/1
f 65/17/1 66/18/1 67/19/1 68/20/1
f 69/21/1 70/22/1 71/23/1 72/24/1
f 73/5/1 74/6/1 75/7/1 76/8/1
f 77/21/1 78/22/1 79/23/1 80/24/1

