# Tiled2Unity generated file. Do not modify by hand.
# Wavefront file for 'Inside-Volcano_mesh_0006.obj'

# Vertices (Count = 180)
v -256 -80 0
v -272 -80 0
v -272 -64 0
v -256 -64 0
v -112 -80 0
v -128 -80 0
v -128 -64 0
v -112 -64 0
v -256 -96 0
v -272 -96 0
v -272 -80 0
v -256 -80 0
v -112 -96 0
v -128 -96 0
v -128 -80 0
v -112 -80 0
v -256 -112 0
v -272 -112 0
v -272 -96 0
v -256 -96 0
v -112 -112 0
v -128 -112 0
v -128 -96 0
v -112 -96 0
v -208 -128 0
v -224 -128 0
v -224 -112 0
v -208 -112 0
v -192 -128 0
v -208 -128 0
v -208 -112 0
v -192 -112 0
v -176 -128 0
v -192 -128 0
v -192 -112 0
v -176 -112 0
v -192 -144 0
v -208 -144 0
v -208 -128 0
v -192 -128 0
v -208 -160 0
v -224 -160 0
v -224 -144 0
v -208 -144 0
v -176 -160 0
v -192 -160 0
v -192 -144 0
v -176 -144 0
v -320 -224 0
v -336 -224 0
v -336 -208 0
v -320 -208 0
v -48 -224 0
v -64 -224 0
v -64 -208 0
v -48 -208 0
v -320 -240 0
v -336 -240 0
v -336 -224 0
v -320 -224 0
v -48 -240 0
v -64 -240 0
v -64 -224 0
v -48 -224 0
v -320 -256 0
v -336 -256 0
v -336 -240 0
v -320 -240 0
v -48 -256 0
v -64 -256 0
v -64 -240 0
v -48 -240 0
v -320 -272 0
v -336 -272 0
v -336 -256 0
v -320 -256 0
v -48 -272 0
v -64 -272 0
v -64 -256 0
v -48 -256 0
v -320 -288 0
v -336 -288 0
v -336 -272 0
v -320 -272 0
v -48 -288 0
v -64 -288 0
v -64 -272 0
v -48 -272 0
v -624 -336 0
v -640 -336 0
v -640 -320 0
v -624 -320 0
v -624 -352 0
v -640 -352 0
v -640 -336 0
v -624 -336 0
v -624 -368 0
v -640 -368 0
v -640 -352 0
v -624 -352 0
v -624 -384 0
v -640 -384 0
v -640 -368 0
v -624 -368 0
v -624 -400 0
v -640 -400 0
v -640 -384 0
v -624 -384 0
v -784 -480 0
v -800 -480 0
v -800 -464 0
v -784 -464 0
v -784 -560 0
v -800 -560 0
v -800 -544 0
v -784 -544 0
v -160 -768 0
v -176 -768 0
v -176 -752 0
v -160 -752 0
v -32 -768 0
v -48 -768 0
v -48 -752 0
v -32 -752 0
v -48 -800 0
v -64 -800 0
v -64 -784 0
v -48 -784 0
v -176 -816 0
v -192 -816 0
v -192 -800 0
v -176 -800 0
v -48 -816 0
v -64 -816 0
v -64 -800 0
v -48 -800 0
v -176 -832 0
v -192 -832 0
v -192 -816 0
v -176 -816 0
v -48 -832 0
v -64 -832 0
v -64 -816 0
v -48 -816 0
v -496 -992 0
v -512 -992 0
v -512 -976 0
v -496 -976 0
v -464 -992 0
v -480 -992 0
v -480 -976 0
v -464 -976 0
v -416 -992 0
v -432 -992 0
v -432 -976 0
v -416 -976 0
v -352 -992 0
v -368 -992 0
v -368 -976 0
v -352 -976 0
v -288 -992 0
v -304 -992 0
v -304 -976 0
v -288 -976 0
v -496 -1008 0
v -512 -1008 0
v -512 -992 0
v -496 -992 0
v -416 -1008 0
v -432 -1008 0
v -432 -992 0
v -416 -992 0
v -352 -1008 0
v -368 -1008 0
v -368 -992 0
v -352 -992 0
v -288 -1008 0
v -304 -1008 0
v -304 -992 0
v -288 -992 0

# Texture cooridinates (Count = 56)
vt 0.1382114 0.6131147
vt 0.1707317 0.6131147
vt 0.1707317 0.6655738
vt 0.1382114 0.6655738
vt 0 0.6688524
vt 0.03252032 0.6688524
vt 0.03252032 0.7213115
vt 0 0.7213115
vt 0.1036585 0.6131147
vt 0.1361789 0.6131147
vt 0.1361789 0.6655738
vt 0.1036585 0.6655738
vt 0 0.6131147
vt 0.03252032 0.6131147
vt 0.03252032 0.6655738
vt 0 0.6655738
vt 0.449187 0
vt 0.4817073 0
vt 0.4817073 0.052459
vt 0.449187 0.052459
vt 0.1036585 0.6688524
vt 0.1361789 0.6688524
vt 0.1361789 0.7213115
vt 0.1036585 0.7213115
vt 0.2418699 0.7803279
vt 0.2743903 0.7803279
vt 0.2743903 0.8327869
vt 0.2418699 0.8327869
vt 0.2418699 0.7245902
vt 0.2743903 0.7245902
vt 0.2743903 0.7770492
vt 0.2418699 0.7770492
vt 0.1036585 0.8360656
vt 0.1361789 0.8360656
vt 0.1361789 0.8885246
vt 0.1036585 0.8885246
vt 0.1727642 0.947541
vt 0.2052846 0.947541
vt 0.2052846 1
vt 0.1727642 1
vt 0.1727642 0.8918033
vt 0.2052846 0.8918033
vt 0.2052846 0.9442623
vt 0.1727642 0.9442623
vt 0.1727642 0.4459016
vt 0.2052846 0.4459016
vt 0.2052846 0.4983606
vt 0.1727642 0.4983606
vt 0.2073171 0.7803279
vt 0.2398374 0.7803279
vt 0.2398374 0.8327869
vt 0.2073171 0.8327869
vt 0.2073171 0.7245902
vt 0.2398374 0.7245902
vt 0.2398374 0.7770492
vt 0.2073171 0.7770492

# Normal
vn 0 0 -1

# Mesh description
g Inside-Volcano_mesh_0006

# Faces
f 1/1/1 2/2/1 3/3/1 4/4/1
f 5/5/1 6/6/1 7/7/1 8/8/1
f 9/9/1 10/10/1 11/11/1 12/12/1
f 13/9/1 14/10/1 15/11/1 16/12/1
f 17/13/1 18/14/1 19/15/1 20/16/1
f 21/13/1 22/14/1 23/15/1 24/16/1
f 25/17/1 26/18/1 27/19/1 28/20/1
f 29/5/1 30/6/1 31/7/1 32/8/1
f 33/17/1 34/18/1 35/19/1 36/20/1
f 37/13/1 38/14/1 39/15/1 40/16/1
f 41/17/1 42/18/1 43/19/1 44/20/1
f 45/17/1 46/18/1 47/19/1 48/20/1
f 49/5/1 50/6/1 51/7/1 52/8/1
f 53/5/1 54/6/1 55/7/1 56/8/1
f 57/9/1 58/10/1 59/11/1 60/12/1
f 61/9/1 62/10/1 63/11/1 64/12/1
f 65/21/1 66/22/1 67/23/1 68/24/1
f 69/9/1 70/10/1 71/11/1 72/12/1
f 73/21/1 74/22/1 75/23/1 76/24/1
f 77/9/1 78/10/1 79/11/1 80/12/1
f 81/13/1 82/14/1 83/15/1 84/16/1
f 85/13/1 86/14/1 87/15/1 88/16/1
f 89/25/1 90/26/1 91/27/1 92/28/1
f 93/25/1 94/26/1 95/27/1 96/28/1
f 97/25/1 98/26/1 99/27/1 100/28/1
f 101/25/1 102/26/1 103/27/1 104/28/1
f 105/29/1 106/30/1 107/31/1 108/32/1
f 109/17/1 110/18/1 111/19/1 112/20/1
f 113/17/1 114/18/1 115/19/1 116/20/1
f 117/33/1 118/34/1 119/35/1 120/36/1
f 121/33/1 122/34/1 123/35/1 124/36/1
f 125/33/1 126/34/1 127/35/1 128/36/1
f 129/37/1 130/38/1 131/39/1 132/40/1
f 133/37/1 134/38/1 135/39/1 136/40/1
f 137/41/1 138/42/1 139/43/1 140/44/1
f 141/41/1 142/42/1 143/43/1 144/44/1
f 145/25/1 146/26/1 147/27/1 148/28/1
f 149/45/1 150/46/1 151/47/1 152/48/1
f 153/49/1 154/50/1 155/51/1 156/52/1
f 157/25/1 158/26/1 159/27/1 160/28/1
f 161/49/1 162/50/1 163/51/1 164/52/1
f 165/29/1 166/30/1 167/31/1 168/32/1
f 169/53/1 170/54/1 171/55/1 172/56/1
f 173/29/1 174/30/1 175/31/1 176/32/1
f 177/53/1 178/54/1 179/55/1 180/56/1

