# Tiled2Unity generated file. Do not modify by hand.
# Wavefront file for 'Inside-Volcano_mesh_0007.obj'

# Vertices (Count = 72)
v -224 -128 0
v -240 -128 0
v -240 -112 0
v -224 -112 0
v -160 -128 0
v -176 -128 0
v -176 -112 0
v -160 -112 0
v -224 -144 0
v -240 -144 0
v -240 -128 0
v -224 -128 0
v -160 -144 0
v -176 -144 0
v -176 -128 0
v -160 -128 0
v -448 -592 0
v -464 -592 0
v -464 -576 0
v -448 -576 0
v -448 -608 0
v -464 -608 0
v -464 -592 0
v -448 -592 0
v -448 -624 0
v -464 -624 0
v -464 -608 0
v -448 -608 0
v -640 -640 0
v -656 -640 0
v -656 -624 0
v -640 -624 0
v -624 -640 0
v -640 -640 0
v -640 -624 0
v -624 -624 0
v -608 -640 0
v -624 -640 0
v -624 -624 0
v -608 -624 0
v -592 -640 0
v -608 -640 0
v -608 -624 0
v -592 -624 0
v -576 -640 0
v -592 -640 0
v -592 -624 0
v -576 -624 0
v -560 -640 0
v -576 -640 0
v -576 -624 0
v -560 -624 0
v -544 -640 0
v -560 -640 0
v -560 -624 0
v -544 -624 0
v -528 -640 0
v -544 -640 0
v -544 -624 0
v -528 -624 0
v -464 -640 0
v -480 -640 0
v -480 -624 0
v -464 -624 0
v -32 -976 0
v -48 -976 0
v -48 -960 0
v -32 -960 0
v 0 -976 0
v -16 -976 0
v -16 -960 0
v 0 -960 0

# Texture cooridinates (Count = 36)
vt 0.8780992 0.6463878
vt 0.8946281 0.6463878
vt 0.8946281 0.6768061
vt 0.8780992 0.6768061
vt 0.8780992 0.6140684
vt 0.8946281 0.6140684
vt 0.8946281 0.6444867
vt 0.8780992 0.6444867
vt 0.7024794 0.4847909
vt 0.7190083 0.4847909
vt 0.7190083 0.5152091
vt 0.7024794 0.5152091
vt 0.6497934 0.4847909
vt 0.6663223 0.4847909
vt 0.6663223 0.5152091
vt 0.6497934 0.5152091
vt 0.6497934 0.4524715
vt 0.6663223 0.4524715
vt 0.6663223 0.4828897
vt 0.6497934 0.4828897
vt 0.5971074 0.4524715
vt 0.6136364 0.4524715
vt 0.6136364 0.4828897
vt 0.5971074 0.4828897
vt 0.6146694 0.4524715
vt 0.6311983 0.4524715
vt 0.6311983 0.4828897
vt 0.6146694 0.4828897
vt 0.6322314 0.4524715
vt 0.6487603 0.4524715
vt 0.6487603 0.4828897
vt 0.6322314 0.4828897
vt 0.8605372 0.2585551
vt 0.8770661 0.2585551
vt 0.8770661 0.2889734
vt 0.8605372 0.2889734

# Normal
vn 0 0 -1

# Mesh description
g Inside-Volcano_mesh_0007

# Faces
f 1/1/1 2/2/1 3/3/1 4/4/1
f 5/1/1 6/2/1 7/3/1 8/4/1
f 9/5/1 10/6/1 11/7/1 12/8/1
f 13/5/1 14/6/1 15/7/1 16/8/1
f 17/9/1 18/10/1 19/11/1 20/12/1
f 21/9/1 22/10/1 23/11/1 24/12/1
f 25/13/1 26/14/1 27/15/1 28/16/1
f 29/17/1 30/18/1 31/19/1 32/20/1
f 33/21/1 34/22/1 35/23/1 36/24/1
f 37/21/1 38/22/1 39/23/1 40/24/1
f 41/21/1 42/22/1 43/23/1 44/24/1
f 45/21/1 46/22/1 47/23/1 48/24/1
f 49/21/1 50/22/1 51/23/1 52/24/1
f 53/21/1 54/22/1 55/23/1 56/24/1
f 57/25/1 58/26/1 59/27/1 60/28/1
f 61/29/1 62/30/1 63/31/1 64/32/1
f 65/33/1 66/34/1 67/35/1 68/36/1
f 69/33/1 70/34/1 71/35/1 72/36/1

