# Tiled2Unity generated file. Do not modify by hand.
# Wavefront file for 'Inside-Volcano_mesh_0005.obj'

# Vertices (Count = 700)
v -128 -128 0
v -144 -128 0
v -144 -112 0
v -128 -112 0
v -128 -208 0
v -144 -208 0
v -144 -192 0
v -128 -192 0
v -288 -240 0
v -304 -240 0
v -304 -224 0
v -288 -224 0
v -80 -304 0
v -96 -304 0
v -96 -288 0
v -80 -288 0
v -288 -320 0
v -304 -320 0
v -304 -304 0
v -288 -304 0
v -208 -448 0
v -224 -448 0
v -224 -432 0
v -208 -432 0
v -192 -448 0
v -208 -448 0
v -208 -432 0
v -192 -432 0
v -176 -448 0
v -192 -448 0
v -192 -432 0
v -176 -432 0
v -208 -464 0
v -224 -464 0
v -224 -448 0
v -208 -448 0
v -192 -464 0
v -208 -464 0
v -208 -448 0
v -192 -448 0
v -176 -464 0
v -192 -464 0
v -192 -448 0
v -176 -448 0
v -208 -480 0
v -224 -480 0
v -224 -464 0
v -208 -464 0
v -192 -480 0
v -208 -480 0
v -208 -464 0
v -192 -464 0
v -176 -480 0
v -192 -480 0
v -192 -464 0
v -176 -464 0
v -144 -720 0
v -160 -720 0
v -160 -704 0
v -144 -704 0
v -128 -720 0
v -144 -720 0
v -144 -704 0
v -128 -704 0
v -112 -720 0
v -128 -720 0
v -128 -704 0
v -112 -704 0
v -96 -720 0
v -112 -720 0
v -112 -704 0
v -96 -704 0
v -80 -720 0
v -96 -720 0
v -96 -704 0
v -80 -704 0
v -64 -720 0
v -80 -720 0
v -80 -704 0
v -64 -704 0
v -48 -720 0
v -64 -720 0
v -64 -704 0
v -48 -704 0
v -144 -736 0
v -160 -736 0
v -160 -720 0
v -144 -720 0
v -128 -736 0
v -144 -736 0
v -144 -720 0
v -128 -720 0
v -112 -736 0
v -128 -736 0
v -128 -720 0
v -112 -720 0
v -96 -736 0
v -112 -736 0
v -112 -720 0
v -96 -720 0
v -80 -736 0
v -96 -736 0
v -96 -720 0
v -80 -720 0
v -64 -736 0
v -80 -736 0
v -80 -720 0
v -64 -720 0
v -48 -736 0
v -64 -736 0
v -64 -720 0
v -48 -720 0
v -144 -752 0
v -160 -752 0
v -160 -736 0
v -144 -736 0
v -128 -752 0
v -144 -752 0
v -144 -736 0
v -128 -736 0
v -112 -752 0
v -128 -752 0
v -128 -736 0
v -112 -736 0
v -96 -752 0
v -112 -752 0
v -112 -736 0
v -96 -736 0
v -80 -752 0
v -96 -752 0
v -96 -736 0
v -80 -736 0
v -64 -752 0
v -80 -752 0
v -80 -736 0
v -64 -736 0
v -48 -752 0
v -64 -752 0
v -64 -736 0
v -48 -736 0
v -144 -768 0
v -160 -768 0
v -160 -752 0
v -144 -752 0
v -128 -768 0
v -144 -768 0
v -144 -752 0
v -128 -752 0
v -112 -768 0
v -128 -768 0
v -128 -752 0
v -112 -752 0
v -96 -768 0
v -112 -768 0
v -112 -752 0
v -96 -752 0
v -80 -768 0
v -96 -768 0
v -96 -752 0
v -80 -752 0
v -64 -768 0
v -80 -768 0
v -80 -752 0
v -64 -752 0
v -48 -768 0
v -64 -768 0
v -64 -752 0
v -48 -752 0
v -144 -784 0
v -160 -784 0
v -160 -768 0
v -144 -768 0
v -128 -784 0
v -144 -784 0
v -144 -768 0
v -128 -768 0
v -112 -784 0
v -128 -784 0
v -128 -768 0
v -112 -768 0
v -96 -784 0
v -112 -784 0
v -112 -768 0
v -96 -768 0
v -80 -784 0
v -96 -784 0
v -96 -768 0
v -80 -768 0
v -64 -784 0
v -80 -784 0
v -80 -768 0
v -64 -768 0
v -48 -784 0
v -64 -784 0
v -64 -768 0
v -48 -768 0
v -720 -800 0
v -736 -800 0
v -736 -784 0
v -720 -784 0
v -704 -800 0
v -720 -800 0
v -720 -784 0
v -704 -784 0
v -688 -800 0
v -704 -800 0
v -704 -784 0
v -688 -784 0
v -672 -800 0
v -688 -800 0
v -688 -784 0
v -672 -784 0
v -656 -800 0
v -672 -800 0
v -672 -784 0
v -656 -784 0
v -592 -800 0
v -608 -800 0
v -608 -784 0
v -592 -784 0
v -576 -800 0
v -592 -800 0
v -592 -784 0
v -576 -784 0
v -560 -800 0
v -576 -800 0
v -576 -784 0
v -560 -784 0
v -544 -800 0
v -560 -800 0
v -560 -784 0
v -544 -784 0
v -528 -800 0
v -544 -800 0
v -544 -784 0
v -528 -784 0
v -144 -800 0
v -160 -800 0
v -160 -784 0
v -144 -784 0
v -128 -800 0
v -144 -800 0
v -144 -784 0
v -128 -784 0
v -112 -800 0
v -128 -800 0
v -128 -784 0
v -112 -784 0
v -96 -800 0
v -112 -800 0
v -112 -784 0
v -96 -784 0
v -80 -800 0
v -96 -800 0
v -96 -784 0
v -80 -784 0
v -64 -800 0
v -80 -800 0
v -80 -784 0
v -64 -784 0
v -48 -800 0
v -64 -800 0
v -64 -784 0
v -48 -784 0
v -720 -816 0
v -736 -816 0
v -736 -800 0
v -720 -800 0
v -704 -816 0
v -720 -816 0
v -720 -800 0
v -704 -800 0
v -688 -816 0
v -704 -816 0
v -704 -800 0
v -688 -800 0
v -672 -816 0
v -688 -816 0
v -688 -800 0
v -672 -800 0
v -656 -816 0
v -672 -816 0
v -672 -800 0
v -656 -800 0
v -640 -816 0
v -656 -816 0
v -656 -800 0
v -640 -800 0
v -624 -816 0
v -640 -816 0
v -640 -800 0
v -624 -800 0
v -608 -816 0
v -624 -816 0
v -624 -800 0
v -608 -800 0
v -592 -816 0
v -608 -816 0
v -608 -800 0
v -592 -800 0
v -576 -816 0
v -592 -816 0
v -592 -800 0
v -576 -800 0
v -560 -816 0
v -576 -816 0
v -576 -800 0
v -560 -800 0
v -544 -816 0
v -560 -816 0
v -560 -800 0
v -544 -800 0
v -528 -816 0
v -544 -816 0
v -544 -800 0
v -528 -800 0
v -144 -816 0
v -160 -816 0
v -160 -800 0
v -144 -800 0
v -128 -816 0
v -144 -816 0
v -144 -800 0
v -128 -800 0
v -112 -816 0
v -128 -816 0
v -128 -800 0
v -112 -800 0
v -96 -816 0
v -112 -816 0
v -112 -800 0
v -96 -800 0
v -80 -816 0
v -96 -816 0
v -96 -800 0
v -80 -800 0
v -64 -816 0
v -80 -816 0
v -80 -800 0
v -64 -800 0
v -48 -816 0
v -64 -816 0
v -64 -800 0
v -48 -800 0
v -720 -832 0
v -736 -832 0
v -736 -816 0
v -720 -816 0
v -704 -832 0
v -720 -832 0
v -720 -816 0
v -704 -816 0
v -688 -832 0
v -704 -832 0
v -704 -816 0
v -688 -816 0
v -672 -832 0
v -688 -832 0
v -688 -816 0
v -672 -816 0
v -656 -832 0
v -672 -832 0
v -672 -816 0
v -656 -816 0
v -640 -832 0
v -656 -832 0
v -656 -816 0
v -640 -816 0
v -624 -832 0
v -640 -832 0
v -640 -816 0
v -624 -816 0
v -608 -832 0
v -624 -832 0
v -624 -816 0
v -608 -816 0
v -592 -832 0
v -608 -832 0
v -608 -816 0
v -592 -816 0
v -576 -832 0
v -592 -832 0
v -592 -816 0
v -576 -816 0
v -560 -832 0
v -576 -832 0
v -576 -816 0
v -560 -816 0
v -544 -832 0
v -560 -832 0
v -560 -816 0
v -544 -816 0
v -528 -832 0
v -544 -832 0
v -544 -816 0
v -528 -816 0
v -720 -848 0
v -736 -848 0
v -736 -832 0
v -720 -832 0
v -704 -848 0
v -720 -848 0
v -720 -832 0
v -704 -832 0
v -688 -848 0
v -704 -848 0
v -704 -832 0
v -688 -832 0
v -672 -848 0
v -688 -848 0
v -688 -832 0
v -672 -832 0
v -656 -848 0
v -672 -848 0
v -672 -832 0
v -656 -832 0
v -640 -848 0
v -656 -848 0
v -656 -832 0
v -640 -832 0
v -624 -848 0
v -640 -848 0
v -640 -832 0
v -624 -832 0
v -608 -848 0
v -624 -848 0
v -624 -832 0
v -608 -832 0
v -592 -848 0
v -608 -848 0
v -608 -832 0
v -592 -832 0
v -576 -848 0
v -592 -848 0
v -592 -832 0
v -576 -832 0
v -560 -848 0
v -576 -848 0
v -576 -832 0
v -560 -832 0
v -544 -848 0
v -560 -848 0
v -560 -832 0
v -544 -832 0
v -528 -848 0
v -544 -848 0
v -544 -832 0
v -528 -832 0
v -656 -864 0
v -672 -864 0
v -672 -848 0
v -656 -848 0
v -640 -864 0
v -656 -864 0
v -656 -848 0
v -640 -848 0
v -624 -864 0
v -640 -864 0
v -640 -848 0
v -624 -848 0
v -608 -864 0
v -624 -864 0
v -624 -848 0
v -608 -848 0
v -592 -864 0
v -608 -864 0
v -608 -848 0
v -592 -848 0
v -512 -992 0
v -528 -992 0
v -528 -976 0
v -512 -976 0
v -496 -992 0
v -512 -992 0
v -512 -976 0
v -496 -976 0
v -480 -992 0
v -496 -992 0
v -496 -976 0
v -480 -976 0
v -464 -992 0
v -480 -992 0
v -480 -976 0
v -464 -976 0
v -448 -992 0
v -464 -992 0
v -464 -976 0
v -448 -976 0
v -432 -992 0
v -448 -992 0
v -448 -976 0
v -432 -976 0
v -416 -992 0
v -432 -992 0
v -432 -976 0
v -416 -976 0
v -400 -992 0
v -416 -992 0
v -416 -976 0
v -400 -976 0
v -384 -992 0
v -400 -992 0
v -400 -976 0
v -384 -976 0
v -368 -992 0
v -384 -992 0
v -384 -976 0
v -368 -976 0
v -352 -992 0
v -368 -992 0
v -368 -976 0
v -352 -976 0
v -336 -992 0
v -352 -992 0
v -352 -976 0
v -336 -976 0
v -320 -992 0
v -336 -992 0
v -336 -976 0
v -320 -976 0
v -304 -992 0
v -320 -992 0
v -320 -976 0
v -304 -976 0
v -288 -992 0
v -304 -992 0
v -304 -976 0
v -288 -976 0
v -272 -992 0
v -288 -992 0
v -288 -976 0
v -272 -976 0
v -256 -992 0
v -272 -992 0
v -272 -976 0
v -256 -976 0
v -240 -992 0
v -256 -992 0
v -256 -976 0
v -240 -976 0
v -224 -992 0
v -240 -992 0
v -240 -976 0
v -224 -976 0
v -208 -992 0
v -224 -992 0
v -224 -976 0
v -208 -976 0
v -192 -992 0
v -208 -992 0
v -208 -976 0
v -192 -976 0
v -176 -992 0
v -192 -992 0
v -192 -976 0
v -176 -976 0
v -160 -992 0
v -176 -992 0
v -176 -976 0
v -160 -976 0
v -144 -992 0
v -160 -992 0
v -160 -976 0
v -144 -976 0
v -128 -992 0
v -144 -992 0
v -144 -976 0
v -128 -976 0
v -112 -992 0
v -128 -992 0
v -128 -976 0
v -112 -976 0
v -96 -992 0
v -112 -992 0
v -112 -976 0
v -96 -976 0
v -80 -992 0
v -96 -992 0
v -96 -976 0
v -80 -976 0
v -64 -992 0
v -80 -992 0
v -80 -976 0
v -64 -976 0
v -48 -992 0
v -64 -992 0
v -64 -976 0
v -48 -976 0
v -32 -992 0
v -48 -992 0
v -48 -976 0
v -32 -976 0
v -16 -992 0
v -32 -992 0
v -32 -976 0
v -16 -976 0
v 0 -992 0
v -16 -992 0
v -16 -976 0
v 0 -976 0
v -512 -1008 0
v -528 -1008 0
v -528 -992 0
v -512 -992 0
v -480 -1008 0
v -496 -1008 0
v -496 -992 0
v -480 -992 0
v -448 -1008 0
v -464 -1008 0
v -464 -992 0
v -448 -992 0
v -416 -1008 0
v -432 -1008 0
v -432 -992 0
v -416 -992 0
v -384 -1008 0
v -400 -1008 0
v -400 -992 0
v -384 -992 0
v -352 -1008 0
v -368 -1008 0
v -368 -992 0
v -352 -992 0
v -320 -1008 0
v -336 -1008 0
v -336 -992 0
v -320 -992 0
v -288 -1008 0
v -304 -1008 0
v -304 -992 0
v -288 -992 0
v -256 -1008 0
v -272 -1008 0
v -272 -992 0
v -256 -992 0
v -224 -1008 0
v -240 -1008 0
v -240 -992 0
v -224 -992 0
v -512 -1024 0
v -528 -1024 0
v -528 -1008 0
v -512 -1008 0
v -480 -1024 0
v -496 -1024 0
v -496 -1008 0
v -480 -1008 0
v -448 -1024 0
v -464 -1024 0
v -464 -1008 0
v -448 -1008 0
v -416 -1024 0
v -432 -1024 0
v -432 -1008 0
v -416 -1008 0
v -384 -1024 0
v -400 -1024 0
v -400 -1008 0
v -384 -1008 0
v -352 -1024 0
v -368 -1024 0
v -368 -1008 0
v -352 -1008 0
v -320 -1024 0
v -336 -1024 0
v -336 -1008 0
v -320 -1008 0
v -288 -1024 0
v -304 -1024 0
v -304 -1008 0
v -288 -1008 0
v -256 -1024 0
v -272 -1024 0
v -272 -1008 0
v -256 -1008 0
v -224 -1024 0
v -240 -1024 0
v -240 -1008 0
v -224 -1008 0
v -512 -1040 0
v -528 -1040 0
v -528 -1024 0
v -512 -1024 0
v -480 -1040 0
v -496 -1040 0
v -496 -1024 0
v -480 -1024 0
v -448 -1040 0
v -464 -1040 0
v -464 -1024 0
v -448 -1024 0
v -256 -1040 0
v -272 -1040 0
v -272 -1024 0
v -256 -1024 0
v -224 -1040 0
v -240 -1040 0
v -240 -1024 0
v -224 -1024 0

# Texture cooridinates (Count = 184)
vt 0.4837398 0.2229508
vt 0.5162601 0.2229508
vt 0.5162601 0.2754098
vt 0.4837398 0.2754098
vt 0.2418699 0.947541
vt 0.2743903 0.947541
vt 0.2743903 1
vt 0.2418699 1
vt 0.898374 0.2229508
vt 0.9308943 0.2229508
vt 0.9308943 0.2754098
vt 0.898374 0.2754098
vt 0.8638211 0.2229508
vt 0.8963414 0.2229508
vt 0.8963414 0.2754098
vt 0.8638211 0.2754098
vt 0.8292683 0.2229508
vt 0.8617886 0.2229508
vt 0.8617886 0.2754098
vt 0.8292683 0.2754098
vt 0.898374 0.1672131
vt 0.9308943 0.1672131
vt 0.9308943 0.2196721
vt 0.898374 0.2196721
vt 0.8638211 0.1672131
vt 0.8963414 0.1672131
vt 0.8963414 0.2196721
vt 0.8638211 0.2196721
vt 0.8292683 0.1672131
vt 0.8617886 0.1672131
vt 0.8617886 0.2196721
vt 0.8292683 0.2196721
vt 0.898374 0.1114754
vt 0.9308943 0.1114754
vt 0.9308943 0.1639344
vt 0.898374 0.1639344
vt 0.8638211 0.1114754
vt 0.8963414 0.1114754
vt 0.8963414 0.1639344
vt 0.8638211 0.1639344
vt 0.8292683 0.1114754
vt 0.8617886 0.1114754
vt 0.8617886 0.1639344
vt 0.8292683 0.1639344
vt 0.3455285 0.6688524
vt 0.3780488 0.6688524
vt 0.3780488 0.7213115
vt 0.3455285 0.7213115
vt 0.3109756 0.557377
vt 0.3434959 0.557377
vt 0.3434959 0.6098361
vt 0.3109756 0.6098361
vt 0 0.4459016
vt 0.03252032 0.4459016
vt 0.03252032 0.4983606
vt 0 0.4983606
vt 0.03455285 0.557377
vt 0.06707317 0.557377
vt 0.06707317 0.6098361
vt 0.03455285 0.6098361
vt 0 0.557377
vt 0.03252032 0.557377
vt 0.03252032 0.6098361
vt 0 0.6098361
vt 0.2764228 0.557377
vt 0.3089431 0.557377
vt 0.3089431 0.6098361
vt 0.2764228 0.6098361
vt 0.03455285 0.5016394
vt 0.06707317 0.5016394
vt 0.06707317 0.5540984
vt 0.03455285 0.5540984
vt 0 0.5016394
vt 0.03252032 0.5016394
vt 0.03252032 0.5540984
vt 0 0.5540984
vt 0.03455285 0.4459016
vt 0.06707317 0.4459016
vt 0.06707317 0.4983606
vt 0.03455285 0.4983606
vt 0.3800813 0.6688524
vt 0.4126016 0.6688524
vt 0.4126016 0.7213115
vt 0.3800813 0.7213115
vt 0.4146341 0.6688524
vt 0.4471545 0.6688524
vt 0.4471545 0.7213115
vt 0.4146341 0.7213115
vt 0.449187 0.6688524
vt 0.4817073 0.6688524
vt 0.4817073 0.7213115
vt 0.449187 0.7213115
vt 0.3109756 0.6688524
vt 0.3434959 0.6688524
vt 0.3434959 0.7213115
vt 0.3109756 0.7213115
vt 0.3455285 0.557377
vt 0.3780488 0.557377
vt 0.3780488 0.6098361
vt 0.3455285 0.6098361
vt 0.449187 0.5016394
vt 0.4817073 0.5016394
vt 0.4817073 0.5540984
vt 0.449187 0.5540984
vt 0.449187 0.6131147
vt 0.4817073 0.6131147
vt 0.4817073 0.6655738
vt 0.449187 0.6655738
vt 0.4146341 0.6131147
vt 0.4471545 0.6131147
vt 0.4471545 0.6655738
vt 0.4146341 0.6655738
vt 0.3455285 0.4459016
vt 0.3780488 0.4459016
vt 0.3780488 0.4983606
vt 0.3455285 0.4983606
vt 0.2764228 0.4459016
vt 0.3089431 0.4459016
vt 0.3089431 0.4983606
vt 0.2764228 0.4983606
vt 0.7947155 0.390164
vt 0.8272358 0.390164
vt 0.8272358 0.442623
vt 0.7947155 0.442623
vt 0.7601626 0.390164
vt 0.7926829 0.390164
vt 0.7926829 0.442623
vt 0.7601626 0.442623
vt 0.7256098 0.390164
vt 0.7581301 0.390164
vt 0.7581301 0.442623
vt 0.7256098 0.442623
vt 0.3109756 0.4459016
vt 0.3434959 0.4459016
vt 0.3434959 0.4983606
vt 0.3109756 0.4983606
vt 0.7947155 0.3344262
vt 0.8272358 0.3344262
vt 0.8272358 0.3868852
vt 0.7947155 0.3868852
vt 0.7601626 0.3344262
vt 0.7926829 0.3344262
vt 0.7926829 0.3868852
vt 0.7601626 0.3868852
vt 0.7256098 0.3344262
vt 0.7581301 0.3344262
vt 0.7581301 0.3868852
vt 0.7256098 0.3868852
vt 0.7947155 0.2786885
vt 0.8272358 0.2786885
vt 0.8272358 0.3311476
vt 0.7947155 0.3311476
vt 0.7601626 0.2786885
vt 0.7926829 0.2786885
vt 0.7926829 0.3311476
vt 0.7601626 0.3311476
vt 0.7256098 0.2786885
vt 0.7581301 0.2786885
vt 0.7581301 0.3311476
vt 0.7256098 0.3311476
vt 0.2418699 0.557377
vt 0.2743903 0.557377
vt 0.2743903 0.6098361
vt 0.2418699 0.6098361
vt 0.1727642 0.557377
vt 0.2052846 0.557377
vt 0.2052846 0.6098361
vt 0.1727642 0.6098361
vt 0.1382114 0.557377
vt 0.1707317 0.557377
vt 0.1707317 0.6098361
vt 0.1382114 0.6098361
vt 0.3109756 0.7770492
vt 0.3109756 0.7245902
vt 0.3434959 0.7245902
vt 0.3434959 0.7770492
vt 0.2418699 0.5016394
vt 0.2743903 0.5016394
vt 0.2743903 0.5540984
vt 0.2418699 0.5540984
vt 0.1382114 0.4459016
vt 0.1707317 0.4459016
vt 0.1707317 0.4983606
vt 0.1382114 0.4983606

# Normal
vn 0 0 -1

# Mesh description
g Inside-Volcano_mesh_0005

# Faces
f 1/1/1 2/2/1 3/3/1 4/4/1
f 5/5/1 6/6/1 7/7/1 8/8/1
f 9/5/1 10/6/1 11/7/1 12/8/1
f 13/5/1 14/6/1 15/7/1 16/8/1
f 17/5/1 18/6/1 19/7/1 20/8/1
f 21/9/1 22/10/1 23/11/1 24/12/1
f 25/13/1 26/14/1 27/15/1 28/16/1
f 29/17/1 30/18/1 31/19/1 32/20/1
f 33/21/1 34/22/1 35/23/1 36/24/1
f 37/25/1 38/26/1 39/27/1 40/28/1
f 41/29/1 42/30/1 43/31/1 44/32/1
f 45/33/1 46/34/1 47/35/1 48/36/1
f 49/37/1 50/38/1 51/39/1 52/40/1
f 53/41/1 54/42/1 55/43/1 56/44/1
f 57/45/1 58/46/1 59/47/1 60/48/1
f 61/45/1 62/46/1 63/47/1 64/48/1
f 65/45/1 66/46/1 67/47/1 68/48/1
f 69/45/1 70/46/1 71/47/1 72/48/1
f 73/45/1 74/46/1 75/47/1 76/48/1
f 77/45/1 78/46/1 79/47/1 80/48/1
f 81/45/1 82/46/1 83/47/1 84/48/1
f 85/49/1 86/50/1 87/51/1 88/52/1
f 89/49/1 90/50/1 91/51/1 92/52/1
f 93/49/1 94/50/1 95/51/1 96/52/1
f 97/49/1 98/50/1 99/51/1 100/52/1
f 101/49/1 102/50/1 103/51/1 104/52/1
f 105/49/1 106/50/1 107/51/1 108/52/1
f 109/49/1 110/50/1 111/51/1 112/52/1
f 113/49/1 114/50/1 115/51/1 116/52/1
f 117/53/1 118/54/1 119/55/1 120/56/1
f 121/57/1 122/58/1 123/59/1 124/60/1
f 125/61/1 126/62/1 127/63/1 128/64/1
f 129/57/1 130/58/1 131/59/1 132/60/1
f 133/61/1 134/62/1 135/63/1 136/64/1
f 137/65/1 138/66/1 139/67/1 140/68/1
f 141/49/1 142/50/1 143/51/1 144/52/1
f 145/53/1 146/54/1 147/55/1 148/56/1
f 149/69/1 150/70/1 151/71/1 152/72/1
f 153/73/1 154/74/1 155/75/1 156/76/1
f 157/69/1 158/70/1 159/71/1 160/72/1
f 161/73/1 162/74/1 163/75/1 164/76/1
f 165/65/1 166/66/1 167/67/1 168/68/1
f 169/49/1 170/50/1 171/51/1 172/52/1
f 173/53/1 174/54/1 175/55/1 176/56/1
f 177/77/1 178/78/1 179/79/1 180/80/1
f 181/53/1 182/54/1 183/55/1 184/56/1
f 185/77/1 186/78/1 187/79/1 188/80/1
f 189/53/1 190/54/1 191/55/1 192/56/1
f 193/65/1 194/66/1 195/67/1 196/68/1
f 197/81/1 198/82/1 199/83/1 200/84/1
f 201/45/1 202/46/1 203/47/1 204/48/1
f 205/45/1 206/46/1 207/47/1 208/48/1
f 209/45/1 210/46/1 211/47/1 212/48/1
f 213/85/1 214/86/1 215/87/1 216/88/1
f 217/89/1 218/90/1 219/91/1 220/92/1
f 221/45/1 222/46/1 223/47/1 224/48/1
f 225/45/1 226/46/1 227/47/1 228/48/1
f 229/45/1 230/46/1 231/47/1 232/48/1
f 233/93/1 234/94/1 235/95/1 236/96/1
f 237/97/1 238/98/1 239/99/1 240/100/1
f 241/53/1 242/54/1 243/55/1 244/56/1
f 245/53/1 246/54/1 247/55/1 248/56/1
f 249/53/1 250/54/1 251/55/1 252/56/1
f 253/53/1 254/54/1 255/55/1 256/56/1
f 257/53/1 258/54/1 259/55/1 260/56/1
f 261/65/1 262/66/1 263/67/1 264/68/1
f 265/97/1 266/98/1 267/99/1 268/100/1
f 269/101/1 270/102/1 271/103/1 272/104/1
f 273/101/1 274/102/1 275/103/1 276/104/1
f 277/101/1 278/102/1 279/103/1 280/104/1
f 281/105/1 282/106/1 283/107/1 284/108/1
f 285/45/1 286/46/1 287/47/1 288/48/1
f 289/45/1 290/46/1 291/47/1 292/48/1
f 293/45/1 294/46/1 295/47/1 296/48/1
f 297/109/1 298/110/1 299/111/1 300/112/1
f 301/101/1 302/102/1 303/103/1 304/104/1
f 305/101/1 306/102/1 307/103/1 308/104/1
f 309/101/1 310/102/1 311/103/1 312/104/1
f 313/65/1 314/66/1 315/67/1 316/68/1
f 317/113/1 318/114/1 319/115/1 320/116/1
f 321/53/1 322/54/1 323/55/1 324/56/1
f 325/53/1 326/54/1 327/55/1 328/56/1
f 329/53/1 330/54/1 331/55/1 332/56/1
f 333/53/1 334/54/1 335/55/1 336/56/1
f 337/53/1 338/54/1 339/55/1 340/56/1
f 341/117/1 342/118/1 343/119/1 344/120/1
f 345/97/1 346/98/1 347/99/1 348/100/1
f 349/101/1 350/102/1 351/103/1 352/104/1
f 353/101/1 354/102/1 355/103/1 356/104/1
f 357/101/1 358/102/1 359/103/1 360/104/1
f 361/97/1 362/98/1 363/99/1 364/100/1
f 365/121/1 366/122/1 367/123/1 368/124/1
f 369/125/1 370/126/1 371/127/1 372/128/1
f 373/129/1 374/130/1 375/131/1 376/132/1
f 377/65/1 378/66/1 379/67/1 380/68/1
f 381/101/1 382/102/1 383/103/1 384/104/1
f 385/101/1 386/102/1 387/103/1 388/104/1
f 389/101/1 390/102/1 391/103/1 392/104/1
f 393/65/1 394/66/1 395/67/1 396/68/1
f 397/113/1 398/114/1 399/115/1 400/116/1
f 401/133/1 402/134/1 403/135/1 404/136/1
f 405/133/1 406/134/1 407/135/1 408/136/1
f 409/133/1 410/134/1 411/135/1 412/136/1
f 413/97/1 414/98/1 415/99/1 416/100/1
f 417/137/1 418/138/1 419/139/1 420/140/1
f 421/141/1 422/142/1 423/143/1 424/144/1
f 425/145/1 426/146/1 427/147/1 428/148/1
f 429/65/1 430/66/1 431/67/1 432/68/1
f 433/133/1 434/134/1 435/135/1 436/136/1
f 437/133/1 438/134/1 439/135/1 440/136/1
f 441/133/1 442/134/1 443/135/1 444/136/1
f 445/117/1 446/118/1 447/119/1 448/120/1
f 449/113/1 450/114/1 451/115/1 452/116/1
f 453/149/1 454/150/1 455/151/1 456/152/1
f 457/153/1 458/154/1 459/155/1 460/156/1
f 461/157/1 462/158/1 463/159/1 464/160/1
f 465/117/1 466/118/1 467/119/1 468/120/1
f 469/161/1 470/162/1 471/163/1 472/164/1
f 473/165/1 474/166/1 475/167/1 476/168/1
f 477/169/1 478/170/1 479/171/1 480/172/1
f 481/165/1 482/166/1 483/167/1 484/168/1
f 485/169/1 486/170/1 487/171/1 488/172/1
f 489/165/1 490/166/1 491/167/1 492/168/1
f 493/169/1 494/170/1 495/171/1 496/172/1
f 497/165/1 498/166/1 499/167/1 500/168/1
f 501/169/1 502/170/1 503/171/1 504/172/1
f 505/165/1 506/166/1 507/167/1 508/168/1
f 509/169/1 510/170/1 511/171/1 512/172/1
f 513/165/1 514/166/1 515/167/1 516/168/1
f 517/169/1 518/170/1 519/171/1 520/172/1
f 521/165/1 522/166/1 523/167/1 524/168/1
f 525/169/1 526/170/1 527/171/1 528/172/1
f 529/165/1 530/166/1 531/167/1 532/168/1
f 533/169/1 534/170/1 535/171/1 536/172/1
f 537/165/1 538/166/1 539/167/1 540/168/1
f 541/169/1 542/170/1 543/171/1 544/172/1
f 545/165/1 546/166/1 547/167/1 548/168/1
f 549/173/1 550/174/1 551/175/1 552/176/1
f 553/174/1 554/175/1 555/176/1 556/173/1
f 557/175/1 558/174/1 559/173/1 560/176/1
f 561/175/1 562/174/1 563/173/1 564/176/1
f 565/175/1 566/174/1 567/173/1 568/176/1
f 569/175/1 570/174/1 571/173/1 572/176/1
f 573/175/1 574/174/1 575/173/1 576/176/1
f 577/175/1 578/174/1 579/173/1 580/176/1
f 581/175/1 582/174/1 583/173/1 584/176/1
f 585/175/1 586/174/1 587/173/1 588/176/1
f 589/175/1 590/174/1 591/173/1 592/176/1
f 593/175/1 594/174/1 595/173/1 596/176/1
f 597/175/1 598/174/1 599/173/1 600/176/1
f 601/177/1 602/178/1 603/179/1 604/180/1
f 605/181/1 606/182/1 607/183/1 608/184/1
f 609/181/1 610/182/1 611/183/1 612/184/1
f 613/181/1 614/182/1 615/183/1 616/184/1
f 617/181/1 618/182/1 619/183/1 620/184/1
f 621/181/1 622/182/1 623/183/1 624/184/1
f 625/181/1 626/182/1 627/183/1 628/184/1
f 629/181/1 630/182/1 631/183/1 632/184/1
f 633/181/1 634/182/1 635/183/1 636/184/1
f 637/181/1 638/182/1 639/183/1 640/184/1
f 641/177/1 642/178/1 643/179/1 644/180/1
f 645/181/1 646/182/1 647/183/1 648/184/1
f 649/181/1 650/182/1 651/183/1 652/184/1
f 653/181/1 654/182/1 655/183/1 656/184/1
f 657/181/1 658/182/1 659/183/1 660/184/1
f 661/181/1 662/182/1 663/183/1 664/184/1
f 665/181/1 666/182/1 667/183/1 668/184/1
f 669/181/1 670/182/1 671/183/1 672/184/1
f 673/181/1 674/182/1 675/183/1 676/184/1
f 677/181/1 678/182/1 679/183/1 680/184/1
f 681/177/1 682/178/1 683/179/1 684/180/1
f 685/181/1 686/182/1 687/183/1 688/184/1
f 689/181/1 690/182/1 691/183/1 692/184/1
f 693/181/1 694/182/1 695/183/1 696/184/1
f 697/181/1 698/182/1 699/183/1 700/184/1

