# Tiled2Unity generated file. Do not modify by hand.
# Wavefront file for 'Cruise-ship-bottom_mesh_0006.obj'

# Vertices (Count = 40)
v -208 -128 0
v -224 -128 0
v -224 -112 0
v -208 -112 0
v -352 -160 0
v -368 -160 0
v -368 -144 0
v -352 -144 0
v -336 -160 0
v -352 -160 0
v -352 -144 0
v -336 -144 0
v -320 -160 0
v -336 -160 0
v -336 -144 0
v -320 -144 0
v -352 -176 0
v -368 -176 0
v -368 -160 0
v -352 -160 0
v -336 -176 0
v -352 -176 0
v -352 -160 0
v -336 -160 0
v -320 -176 0
v -336 -176 0
v -336 -160 0
v -320 -160 0
v -352 -192 0
v -368 -192 0
v -368 -176 0
v -352 -176 0
v -336 -192 0
v -352 -192 0
v -352 -176 0
v -336 -176 0
v -320 -192 0
v -336 -192 0
v -336 -176 0
v -320 -176 0

# Texture cooridinates (Count = 40)
vt 0.7727273 0.4524715
vt 0.7892562 0.4524715
vt 0.7892562 0.4828897
vt 0.7727273 0.4828897
vt 0.07024793 0.8726236
vt 0.08677686 0.8726236
vt 0.08677686 0.9030418
vt 0.07024793 0.9030418
vt 0.05268595 0.8726236
vt 0.06921487 0.8726236
vt 0.06921487 0.9030418
vt 0.05268595 0.9030418
vt 0.03512397 0.8726236
vt 0.05165289 0.8726236
vt 0.05165289 0.9030418
vt 0.03512397 0.9030418
vt 0.07024793 0.8403042
vt 0.08677686 0.8403042
vt 0.08677686 0.8707224
vt 0.07024793 0.8707224
vt 0.05268595 0.8403042
vt 0.06921487 0.8403042
vt 0.06921487 0.8707224
vt 0.05268595 0.8707224
vt 0.03512397 0.8403042
vt 0.05165289 0.8403042
vt 0.05165289 0.8707224
vt 0.03512397 0.8707224
vt 0.07024793 0.8079848
vt 0.08677686 0.8079848
vt 0.08677686 0.838403
vt 0.07024793 0.838403
vt 0.05268595 0.8079848
vt 0.06921487 0.8079848
vt 0.06921487 0.838403
vt 0.05268595 0.838403
vt 0.03512397 0.8079848
vt 0.05165289 0.8079848
vt 0.05165289 0.838403
vt 0.03512397 0.838403

# Normal
vn 0 0 -1

# Mesh description
g Cruise-ship-bottom_mesh_0006

# Faces
f 1/1/1 2/2/1 3/3/1 4/4/1
f 5/5/1 6/6/1 7/7/1 8/8/1
f 9/9/1 10/10/1 11/11/1 12/12/1
f 13/13/1 14/14/1 15/15/1 16/16/1
f 17/17/1 18/18/1 19/19/1 20/20/1
f 21/21/1 22/22/1 23/23/1 24/24/1
f 25/25/1 26/26/1 27/27/1 28/28/1
f 29/29/1 30/30/1 31/31/1 32/32/1
f 33/33/1 34/34/1 35/35/1 36/36/1
f 37/37/1 38/38/1 39/39/1 40/40/1

