# Tiled2Unity generated file. Do not modify by hand.
# Wavefront file for 'Cruise-ship-bottom_mesh_0003.obj'

# Vertices (Count = 368)
v -448 -48 0
v -464 -48 0
v -464 -32 0
v -448 -32 0
v -432 -48 0
v -448 -48 0
v -448 -32 0
v -432 -32 0
v -416 -48 0
v -432 -48 0
v -432 -32 0
v -416 -32 0
v -400 -48 0
v -416 -48 0
v -416 -32 0
v -400 -32 0
v -384 -48 0
v -400 -48 0
v -400 -32 0
v -384 -32 0
v -368 -48 0
v -384 -48 0
v -384 -32 0
v -368 -32 0
v -352 -48 0
v -368 -48 0
v -368 -32 0
v -352 -32 0
v -336 -48 0
v -352 -48 0
v -352 -32 0
v -336 -32 0
v -320 -48 0
v -336 -48 0
v -336 -32 0
v -320 -32 0
v -304 -48 0
v -320 -48 0
v -320 -32 0
v -304 -32 0
v -288 -48 0
v -304 -48 0
v -304 -32 0
v -288 -32 0
v -272 -48 0
v -288 -48 0
v -288 -32 0
v -272 -32 0
v -256 -48 0
v -272 -48 0
v -272 -32 0
v -256 -32 0
v -240 -48 0
v -256 -48 0
v -256 -32 0
v -240 -32 0
v -224 -48 0
v -240 -48 0
v -240 -32 0
v -224 -32 0
v -208 -48 0
v -224 -48 0
v -224 -32 0
v -208 -32 0
v -192 -48 0
v -208 -48 0
v -208 -32 0
v -192 -32 0
v -176 -48 0
v -192 -48 0
v -192 -32 0
v -176 -32 0
v -160 -48 0
v -176 -48 0
v -176 -32 0
v -160 -32 0
v -144 -48 0
v -160 -48 0
v -160 -32 0
v -144 -32 0
v -128 -48 0
v -144 -48 0
v -144 -32 0
v -128 -32 0
v -112 -48 0
v -128 -48 0
v -128 -32 0
v -112 -32 0
v -96 -48 0
v -112 -48 0
v -112 -32 0
v -96 -32 0
v -80 -48 0
v -96 -48 0
v -96 -32 0
v -80 -32 0
v -448 -64 0
v -464 -64 0
v -464 -48 0
v -448 -48 0
v -288 -64 0
v -304 -64 0
v -304 -48 0
v -288 -48 0
v -272 -64 0
v -288 -64 0
v -288 -48 0
v -272 -48 0
v -256 -64 0
v -272 -64 0
v -272 -48 0
v -256 -48 0
v -240 -64 0
v -256 -64 0
v -256 -48 0
v -240 -48 0
v -224 -64 0
v -240 -64 0
v -240 -48 0
v -224 -48 0
v -208 -64 0
v -224 -64 0
v -224 -48 0
v -208 -48 0
v -80 -64 0
v -96 -64 0
v -96 -48 0
v -80 -48 0
v -448 -80 0
v -464 -80 0
v -464 -64 0
v -448 -64 0
v -288 -80 0
v -304 -80 0
v -304 -64 0
v -288 -64 0
v -272 -80 0
v -288 -80 0
v -288 -64 0
v -272 -64 0
v -256 -80 0
v -272 -80 0
v -272 -64 0
v -256 -64 0
v -240 -80 0
v -256 -80 0
v -256 -64 0
v -240 -64 0
v -224 -80 0
v -240 -80 0
v -240 -64 0
v -224 -64 0
v -208 -80 0
v -224 -80 0
v -224 -64 0
v -208 -64 0
v -80 -80 0
v -96 -80 0
v -96 -64 0
v -80 -64 0
v -448 -96 0
v -464 -96 0
v -464 -80 0
v -448 -80 0
v -432 -96 0
v -448 -96 0
v -448 -80 0
v -432 -80 0
v -416 -96 0
v -432 -96 0
v -432 -80 0
v -416 -80 0
v -400 -96 0
v -416 -96 0
v -416 -80 0
v -400 -80 0
v -384 -96 0
v -400 -96 0
v -400 -80 0
v -384 -80 0
v -368 -96 0
v -384 -96 0
v -384 -80 0
v -368 -80 0
v -352 -96 0
v -368 -96 0
v -368 -80 0
v -352 -80 0
v -336 -96 0
v -352 -96 0
v -352 -80 0
v -336 -80 0
v -320 -96 0
v -336 -96 0
v -336 -80 0
v -320 -80 0
v -304 -96 0
v -320 -96 0
v -320 -80 0
v -304 -80 0
v -288 -96 0
v -304 -96 0
v -304 -80 0
v -288 -80 0
v -272 -96 0
v -288 -96 0
v -288 -80 0
v -272 -80 0
v -256 -96 0
v -272 -96 0
v -272 -80 0
v -256 -80 0
v -240 -96 0
v -256 -96 0
v -256 -80 0
v -240 -80 0
v -224 -96 0
v -240 -96 0
v -240 -80 0
v -224 -80 0
v -208 -96 0
v -224 -96 0
v -224 -80 0
v -208 -80 0
v -192 -96 0
v -208 -96 0
v -208 -80 0
v -192 -80 0
v -176 -96 0
v -192 -96 0
v -192 -80 0
v -176 -80 0
v -160 -96 0
v -176 -96 0
v -176 -80 0
v -160 -80 0
v -144 -96 0
v -160 -96 0
v -160 -80 0
v -144 -80 0
v -128 -96 0
v -144 -96 0
v -144 -80 0
v -128 -80 0
v -112 -96 0
v -128 -96 0
v -128 -80 0
v -112 -80 0
v -96 -96 0
v -112 -96 0
v -112 -80 0
v -96 -80 0
v -80 -96 0
v -96 -96 0
v -96 -80 0
v -80 -80 0
v -448 -112 0
v -464 -112 0
v -464 -96 0
v -448 -96 0
v -288 -112 0
v -304 -112 0
v -304 -96 0
v -288 -96 0
v -208 -112 0
v -224 -112 0
v -224 -96 0
v -208 -96 0
v -80 -112 0
v -96 -112 0
v -96 -96 0
v -80 -96 0
v -448 -128 0
v -464 -128 0
v -464 -112 0
v -448 -112 0
v -288 -128 0
v -304 -128 0
v -304 -112 0
v -288 -112 0
v -208 -128 0
v -224 -128 0
v -224 -112 0
v -208 -112 0
v -80 -128 0
v -96 -128 0
v -96 -112 0
v -80 -112 0
v -448 -144 0
v -464 -144 0
v -464 -128 0
v -448 -128 0
v -288 -144 0
v -304 -144 0
v -304 -128 0
v -288 -128 0
v -208 -144 0
v -224 -144 0
v -224 -128 0
v -208 -128 0
v -80 -144 0
v -96 -144 0
v -96 -128 0
v -80 -128 0
v -448 -160 0
v -464 -160 0
v -464 -144 0
v -448 -144 0
v -80 -160 0
v -96 -160 0
v -96 -144 0
v -80 -144 0
v -448 -176 0
v -464 -176 0
v -464 -160 0
v -448 -160 0
v -80 -176 0
v -96 -176 0
v -96 -160 0
v -80 -160 0
v -448 -192 0
v -464 -192 0
v -464 -176 0
v -448 -176 0
v -80 -192 0
v -96 -192 0
v -96 -176 0
v -80 -176 0
v -448 -208 0
v -464 -208 0
v -464 -192 0
v -448 -192 0
v -80 -208 0
v -96 -208 0
v -96 -192 0
v -80 -192 0
v -448 -224 0
v -464 -224 0
v -464 -208 0
v -448 -208 0
v -80 -224 0
v -96 -224 0
v -96 -208 0
v -80 -208 0
v -448 -240 0
v -464 -240 0
v -464 -224 0
v -448 -224 0
v -80 -240 0
v -96 -240 0
v -96 -224 0
v -80 -224 0
v -448 -256 0
v -464 -256 0
v -464 -240 0
v -448 -240 0
v -80 -256 0
v -96 -256 0
v -96 -240 0
v -80 -240 0
v -448 -272 0
v -464 -272 0
v -464 -256 0
v -448 -256 0
v -80 -272 0
v -96 -272 0
v -96 -256 0
v -80 -256 0

# Texture cooridinates (Count = 96)
vt 0.5684713 0.8947368
vt 0.593949 0.8947368
vt 0.593949 0.928421
vt 0.5684713 0.928421
vt 0.5414013 0.7873684
vt 0.566879 0.7873684
vt 0.566879 0.8210526
vt 0.5414013 0.8210526
vt 0.2436306 0.9663158
vt 0.2691083 0.9663158
vt 0.2691083 1
vt 0.2436306 1
vt 0.2707006 0.9663158
vt 0.2961783 0.9663158
vt 0.2961783 1
vt 0.2707006 1
vt 0.2165605 0.9663158
vt 0.2420382 0.9663158
vt 0.2420382 1
vt 0.2165605 1
vt 0.5414013 0.8947368
vt 0.566879 0.8947368
vt 0.566879 0.928421
vt 0.5414013 0.928421
vt 0.5143312 0.8589474
vt 0.5398089 0.8589474
vt 0.5398089 0.8926316
vt 0.5143312 0.8926316
vt 0.2977707 0.9305263
vt 0.3232484 0.9305263
vt 0.3232484 0.9642105
vt 0.2977707 0.9642105
vt 0.3789809 0.9663158
vt 0.4044586 0.9663158
vt 0.4044586 1
vt 0.3789809 1
vt 0.2977707 0.9663158
vt 0.3232484 0.9663158
vt 0.3232484 1
vt 0.2977707 1
vt 0.2436306 0.9305263
vt 0.2691083 0.9305263
vt 0.2691083 0.9642105
vt 0.2436306 0.9642105
vt 0.2707006 0.9305263
vt 0.2961783 0.9305263
vt 0.2961783 0.9642105
vt 0.2707006 0.9642105
vt 0.2165605 0.9305263
vt 0.2420382 0.9305263
vt 0.2420382 0.9642105
vt 0.2165605 0.9642105
vt 0.5955414 0.2863158
vt 0.6210191 0.2863158
vt 0.6210191 0.32
vt 0.5955414 0.32
vt 0.5684713 0.2863158
vt 0.593949 0.2863158
vt 0.593949 0.32
vt 0.5684713 0.32
vt 0.1894905 0.7873684
vt 0.2149682 0.7873684
vt 0.2149682 0.8210526
vt 0.1894905 0.8210526
vt 0.1624204 0.7873684
vt 0.1878981 0.7873684
vt 0.1878981 0.8210526
vt 0.1624204 0.8210526
vt 0.1353503 0.7873684
vt 0.160828 0.7873684
vt 0.160828 0.8210526
vt 0.1353503 0.8210526
vt 0.1082803 0.7873684
vt 0.133758 0.7873684
vt 0.133758 0.8210526
vt 0.1082803 0.8210526
vt 0.433121 0.8589474
vt 0.4585987 0.8589474
vt 0.4585987 0.8926316
vt 0.433121 0.8926316
vt 0.406051 0.6442105
vt 0.4315287 0.6442105
vt 0.4315287 0.6778947
vt 0.406051 0.6778947
vt 0.3519108 0.6442105
vt 0.3773885 0.6442105
vt 0.3773885 0.6778947
vt 0.3519108 0.6778947
vt 0.406051 0.6084211
vt 0.4315287 0.6084211
vt 0.4315287 0.6421052
vt 0.406051 0.6421052
vt 0.3519108 0.6084211
vt 0.3773885 0.6084211
vt 0.3773885 0.6421052
vt 0.3519108 0.6421052

# Normal
vn 0 0 -1

# Mesh description
g Cruise-ship-bottom_mesh_0003

# Faces
f 1/1/1 2/2/1 3/3/1 4/4/1
f 5/5/1 6/6/1 7/7/1 8/8/1
f 9/5/1 10/6/1 11/7/1 12/8/1
f 13/5/1 14/6/1 15/7/1 16/8/1
f 17/5/1 18/6/1 19/7/1 20/8/1
f 21/5/1 22/6/1 23/7/1 24/8/1
f 25/5/1 26/6/1 27/7/1 28/8/1
f 29/5/1 30/6/1 31/7/1 32/8/1
f 33/5/1 34/6/1 35/7/1 36/8/1
f 37/5/1 38/6/1 39/7/1 40/8/1
f 41/9/1 42/10/1 43/11/1 44/12/1
f 45/13/1 46/14/1 47/15/1 48/16/1
f 49/13/1 50/14/1 51/15/1 52/16/1
f 53/13/1 54/14/1 55/15/1 56/16/1
f 57/13/1 58/14/1 59/15/1 60/16/1
f 61/17/1 62/18/1 63/19/1 64/20/1
f 65/5/1 66/6/1 67/7/1 68/8/1
f 69/5/1 70/6/1 71/7/1 72/8/1
f 73/5/1 74/6/1 75/7/1 76/8/1
f 77/5/1 78/6/1 79/7/1 80/8/1
f 81/5/1 82/6/1 83/7/1 84/8/1
f 85/5/1 86/6/1 87/7/1 88/8/1
f 89/5/1 90/6/1 91/7/1 92/8/1
f 93/21/1 94/22/1 95/23/1 96/24/1
f 97/25/1 98/26/1 99/27/1 100/28/1
f 101/29/1 102/30/1 103/31/1 104/32/1
f 105/33/1 106/34/1 107/35/1 108/36/1
f 109/33/1 110/34/1 111/35/1 112/36/1
f 113/33/1 114/34/1 115/35/1 116/36/1
f 117/33/1 118/34/1 119/35/1 120/36/1
f 121/37/1 122/38/1 123/39/1 124/40/1
f 125/25/1 126/26/1 127/27/1 128/28/1
f 129/25/1 130/26/1 131/27/1 132/28/1
f 133/41/1 134/42/1 135/43/1 136/44/1
f 137/45/1 138/46/1 139/47/1 140/48/1
f 141/45/1 142/46/1 143/47/1 144/48/1
f 145/45/1 146/46/1 147/47/1 148/48/1
f 149/45/1 150/46/1 151/47/1 152/48/1
f 153/49/1 154/50/1 155/51/1 156/52/1
f 157/25/1 158/26/1 159/27/1 160/28/1
f 161/25/1 162/26/1 163/27/1 164/28/1
f 165/53/1 166/54/1 167/55/1 168/56/1
f 169/57/1 170/58/1 171/59/1 172/60/1
f 173/57/1 174/58/1 175/59/1 176/60/1
f 177/57/1 178/58/1 179/59/1 180/60/1
f 181/57/1 182/58/1 183/59/1 184/60/1
f 185/57/1 186/58/1 187/59/1 188/60/1
f 189/57/1 190/58/1 191/59/1 192/60/1
f 193/57/1 194/58/1 195/59/1 196/60/1
f 197/57/1 198/58/1 199/59/1 200/60/1
f 201/61/1 202/62/1 203/63/1 204/64/1
f 205/65/1 206/66/1 207/67/1 208/68/1
f 209/65/1 210/66/1 211/67/1 212/68/1
f 213/65/1 214/66/1 215/67/1 216/68/1
f 217/65/1 218/66/1 219/67/1 220/68/1
f 221/69/1 222/70/1 223/71/1 224/72/1
f 225/57/1 226/58/1 227/59/1 228/60/1
f 229/57/1 230/58/1 231/59/1 232/60/1
f 233/57/1 234/58/1 235/59/1 236/60/1
f 237/57/1 238/58/1 239/59/1 240/60/1
f 241/57/1 242/58/1 243/59/1 244/60/1
f 245/57/1 246/58/1 247/59/1 248/60/1
f 249/53/1 250/54/1 251/55/1 252/56/1
f 253/25/1 254/26/1 255/27/1 256/28/1
f 257/25/1 258/26/1 259/27/1 260/28/1
f 261/73/1 262/74/1 263/75/1 264/76/1
f 265/73/1 266/74/1 267/75/1 268/76/1
f 269/25/1 270/26/1 271/27/1 272/28/1
f 273/25/1 274/26/1 275/27/1 276/28/1
f 277/73/1 278/74/1 279/75/1 280/76/1
f 281/73/1 282/74/1 283/75/1 284/76/1
f 285/25/1 286/26/1 287/27/1 288/28/1
f 289/25/1 290/26/1 291/27/1 292/28/1
f 293/73/1 294/74/1 295/75/1 296/76/1
f 297/73/1 298/74/1 299/75/1 300/76/1
f 301/25/1 302/26/1 303/27/1 304/28/1
f 305/25/1 306/26/1 307/27/1 308/28/1
f 309/25/1 310/26/1 311/27/1 312/28/1
f 313/25/1 314/26/1 315/27/1 316/28/1
f 317/25/1 318/26/1 319/27/1 320/28/1
f 321/25/1 322/26/1 323/27/1 324/28/1
f 325/25/1 326/26/1 327/27/1 328/28/1
f 329/25/1 330/26/1 331/27/1 332/28/1
f 333/25/1 334/26/1 335/27/1 336/28/1
f 337/77/1 338/78/1 339/79/1 340/80/1
f 341/77/1 342/78/1 343/79/1 344/80/1
f 345/81/1 346/82/1 347/83/1 348/84/1
f 349/85/1 350/86/1 351/87/1 352/88/1
f 353/81/1 354/82/1 355/83/1 356/84/1
f 357/85/1 358/86/1 359/87/1 360/88/1
f 361/89/1 362/90/1 363/91/1 364/92/1
f 365/93/1 366/94/1 367/95/1 368/96/1

