# Tiled2Unity generated file. Do not modify by hand.
# Wavefront file for 'good_bar_mesh_0002.obj'

# Vertices (Count = 72)
v -80 -192 0
v -96 -192 0
v -96 -176 0
v -80 -176 0
v -64 -192 0
v -80 -192 0
v -80 -176 0
v -64 -176 0
v -48 -192 0
v -64 -192 0
v -64 -176 0
v -48 -176 0
v -32 -192 0
v -48 -192 0
v -48 -176 0
v -32 -176 0
v -80 -208 0
v -96 -208 0
v -96 -192 0
v -80 -192 0
v -64 -208 0
v -80 -208 0
v -80 -192 0
v -64 -192 0
v -48 -208 0
v -64 -208 0
v -64 -192 0
v -48 -192 0
v -32 -208 0
v -48 -208 0
v -48 -192 0
v -32 -192 0
v -80 -224 0
v -96 -224 0
v -96 -208 0
v -80 -208 0
v -64 -224 0
v -80 -224 0
v -80 -208 0
v -64 -208 0
v -48 -224 0
v -64 -224 0
v -64 -208 0
v -48 -208 0
v -32 -224 0
v -48 -224 0
v -48 -208 0
v -32 -208 0
v -336 -368 0
v -352 -368 0
v -352 -352 0
v -336 -352 0
v -320 -384 0
v -336 -384 0
v -336 -368 0
v -320 -368 0
v -304 -384 0
v -320 -384 0
v -320 -368 0
v -304 -368 0
v -288 -384 0
v -304 -384 0
v -304 -368 0
v -288 -368 0
v -272 -384 0
v -288 -384 0
v -288 -368 0
v -272 -368 0
v -256 -384 0
v -272 -384 0
v -272 -368 0
v -256 -368 0

# Texture cooridinates (Count = 40)
vt 0.03719912 0.05573773
vt 0.07221007 0.05573773
vt 0.07221007 0.1081967
vt 0.03719912 0.1081967
vt 0.2231947 0.05573773
vt 0.2582057 0.05573773
vt 0.2582057 0.1081967
vt 0.2231947 0.1081967
vt 0 0.05573773
vt 0.03501094 0.05573773
vt 0.03501094 0.1081967
vt 0 0.1081967
vt 0.1859956 0.05573773
vt 0.2210066 0.05573773
vt 0.2210066 0.1081967
vt 0.1859956 0.1081967
vt 0.2603939 0.05573773
vt 0.2954048 0.05573773
vt 0.2954048 0.1081967
vt 0.2603939 0.1081967
vt 0.4091904 0.05573773
vt 0.4442013 0.05573773
vt 0.4442013 0.1081967
vt 0.4091904 0.1081967
vt 0.3719912 0
vt 0.4070022 0
vt 0.4070022 0.052459
vt 0.3719912 0.052459
vt 0.3347921 0
vt 0.3698031 0
vt 0.3698031 0.052459
vt 0.3347921 0.052459
vt 0.5579869 0.1672131
vt 0.5929978 0.1672131
vt 0.5929978 0.2196721
vt 0.5579869 0.2196721
vt 0.4091904 0
vt 0.4442013 0
vt 0.4442013 0.052459
vt 0.4091904 0.052459

# Normal
vn 0 0 -1

# Mesh description
g good_bar_mesh_0002

# Faces
f 1/1/1 2/2/1 3/3/1 4/4/1
f 5/5/1 6/6/1 7/7/1 8/8/1
f 9/5/1 10/6/1 11/7/1 12/8/1
f 13/9/1 14/10/1 15/11/1 16/12/1
f 17/1/1 18/2/1 19/3/1 20/4/1
f 21/13/1 22/14/1 23/15/1 24/16/1
f 25/13/1 26/14/1 27/15/1 28/16/1
f 29/9/1 30/10/1 31/11/1 32/12/1
f 33/1/1 34/2/1 35/3/1 36/4/1
f 37/17/1 38/18/1 39/19/1 40/20/1
f 41/17/1 42/18/1 43/19/1 44/20/1
f 45/9/1 46/10/1 47/11/1 48/12/1
f 49/21/1 50/22/1 51/23/1 52/24/1
f 53/25/1 54/26/1 55/27/1 56/28/1
f 57/29/1 58/30/1 59/31/1 60/32/1
f 61/33/1 62/34/1 63/35/1 64/36/1
f 65/37/1 66/38/1 67/39/1 68/40/1
f 69/29/1 70/30/1 71/31/1 72/32/1

