# Tiled2Unity generated file. Do not modify by hand.
# Wavefront file for 'rest_area_mesh_0004.obj'

# Vertices (Count = 64)
v -176 -64 0
v -192 -64 0
v -192 -48 0
v -176 -48 0
v -176 -80 0
v -192 -80 0
v -192 -64 0
v -176 -64 0
v -32 -80 0
v -48 -80 0
v -48 -64 0
v -32 -64 0
v -32 -96 0
v -48 -96 0
v -48 -80 0
v -32 -80 0
v -176 -128 0
v -192 -128 0
v -192 -112 0
v -176 -112 0
v -176 -144 0
v -192 -144 0
v -192 -128 0
v -176 -128 0
v -32 -144 0
v -48 -144 0
v -48 -128 0
v -32 -128 0
v -32 -160 0
v -48 -160 0
v -48 -144 0
v -32 -144 0
v -176 -240 0
v -192 -240 0
v -192 -224 0
v -176 -224 0
v -32 -240 0
v -48 -240 0
v -48 -224 0
v -32 -224 0
v -176 -256 0
v -192 -256 0
v -192 -240 0
v -176 -240 0
v -32 -256 0
v -48 -256 0
v -48 -240 0
v -32 -240 0
v -176 -304 0
v -192 -304 0
v -192 -288 0
v -176 -288 0
v -32 -304 0
v -48 -304 0
v -48 -288 0
v -32 -288 0
v -176 -320 0
v -192 -320 0
v -192 -304 0
v -176 -304 0
v -32 -320 0
v -48 -320 0
v -48 -304 0
v -32 -304 0

# Texture cooridinates (Count = 8)
vt 0.7811816 0.5016394
vt 0.8161926 0.5016394
vt 0.8161926 0.5540984
vt 0.7811816 0.5540984
vt 0.7811816 0.390164
vt 0.8161926 0.390164
vt 0.8161926 0.442623
vt 0.7811816 0.442623

# Normal
vn 0 0 -1

# Mesh description
g rest_area_mesh_0004

# Faces
f 1/1/1 2/2/1 3/3/1 4/4/1
f 5/5/1 6/6/1 7/7/1 8/8/1
f 9/1/1 10/2/1 11/3/1 12/4/1
f 13/5/1 14/6/1 15/7/1 16/8/1
f 17/1/1 18/2/1 19/3/1 20/4/1
f 21/5/1 22/6/1 23/7/1 24/8/1
f 25/1/1 26/2/1 27/3/1 28/4/1
f 29/5/1 30/6/1 31/7/1 32/8/1
f 33/1/1 34/2/1 35/3/1 36/4/1
f 37/1/1 38/2/1 39/3/1 40/4/1
f 41/5/1 42/6/1 43/7/1 44/8/1
f 45/5/1 46/6/1 47/7/1 48/8/1
f 49/1/1 50/2/1 51/3/1 52/4/1
f 53/1/1 54/2/1 55/3/1 56/4/1
f 57/5/1 58/6/1 59/7/1 60/8/1
f 61/5/1 62/6/1 63/7/1 64/8/1

