# Tiled2Unity generated file. Do not modify by hand.
# Wavefront file for 'Beach_mesh_0009.obj'

# Vertices (Count = 112)
v -1008 -208 0
v -1024 -208 0
v -1024 -192 0
v -1008 -192 0
v -992 -208 0
v -1008 -208 0
v -1008 -192 0
v -992 -192 0
v -1040 -224 0
v -1056 -224 0
v -1056 -208 0
v -1040 -208 0
v -992 -224 0
v -1008 -224 0
v -1008 -208 0
v -992 -208 0
v -976 -224 0
v -992 -224 0
v -992 -208 0
v -976 -208 0
v -960 -224 0
v -976 -224 0
v -976 -208 0
v -960 -208 0
v -1072 -240 0
v -1088 -240 0
v -1088 -224 0
v -1072 -224 0
v -992 -240 0
v -1008 -240 0
v -1008 -224 0
v -992 -224 0
v -976 -240 0
v -992 -240 0
v -992 -224 0
v -976 -224 0
v -960 -240 0
v -976 -240 0
v -976 -224 0
v -960 -224 0
v -944 -240 0
v -960 -240 0
v -960 -224 0
v -944 -224 0
v -928 -240 0
v -944 -240 0
v -944 -224 0
v -928 -224 0
v -1008 -256 0
v -1024 -256 0
v -1024 -240 0
v -1008 -240 0
v -992 -256 0
v -1008 -256 0
v -1008 -240 0
v -992 -240 0
v -976 -256 0
v -992 -256 0
v -992 -240 0
v -976 -240 0
v -960 -256 0
v -976 -256 0
v -976 -240 0
v -960 -240 0
v -944 -256 0
v -960 -256 0
v -960 -240 0
v -944 -240 0
v -1040 -272 0
v -1056 -272 0
v -1056 -256 0
v -1040 -256 0
v -960 -272 0
v -976 -272 0
v -976 -256 0
v -960 -256 0
v -944 -272 0
v -960 -272 0
v -960 -256 0
v -944 -256 0
v -1072 -288 0
v -1088 -288 0
v -1088 -272 0
v -1072 -272 0
v -928 -288 0
v -944 -288 0
v -944 -272 0
v -928 -272 0
v -1072 -304 0
v -1088 -304 0
v -1088 -288 0
v -1072 -288 0
v -992 -304 0
v -1008 -304 0
v -1008 -288 0
v -992 -288 0
v -976 -304 0
v -992 -304 0
v -992 -288 0
v -976 -288 0
v -960 -304 0
v -976 -304 0
v -976 -288 0
v -960 -288 0
v -944 -304 0
v -960 -304 0
v -960 -288 0
v -944 -288 0
v -928 -304 0
v -944 -304 0
v -944 -288 0
v -928 -288 0

# Texture cooridinates (Count = 40)
vt 0.2666667 0.4058824
vt 0.2980392 0.4058824
vt 0.2980392 0.5
vt 0.2666667 0.5
vt 0.2333333 0.4058824
vt 0.2647059 0.4058824
vt 0.2647059 0.5
vt 0.2333333 0.5
vt 0.3 0.4058824
vt 0.3313726 0.4058824
vt 0.3313726 0.5
vt 0.3 0.5
vt 0.2666667 0.2058824
vt 0.2980392 0.2058824
vt 0.2980392 0.3
vt 0.2666667 0.3
vt 0.2333333 0.2058824
vt 0.2647059 0.2058824
vt 0.2647059 0.3
vt 0.2333333 0.3
vt 0.2666667 0.1058823
vt 0.2980392 0.1058823
vt 0.2980392 0.2
vt 0.2666667 0.2
vt 0.2333333 0.1058823
vt 0.2647059 0.1058823
vt 0.2647059 0.2
vt 0.2333333 0.2
vt 0.3 0.1058823
vt 0.3313726 0.1058823
vt 0.3313726 0.2
vt 0.3 0.2
vt 0.3 0.3058823
vt 0.3313726 0.3058823
vt 0.3313726 0.4
vt 0.3 0.4
vt 0.3 0.2058824
vt 0.3313726 0.2058824
vt 0.3313726 0.3
vt 0.3 0.3

# Normal
vn 0 0 -1

# Mesh description
g Beach_mesh_0009

# Faces
f 1/1/1 2/2/1 3/3/1 4/4/1
f 5/5/1 6/6/1 7/7/1 8/8/1
f 9/1/1 10/2/1 11/3/1 12/4/1
f 13/9/1 14/10/1 15/11/1 16/12/1
f 17/9/1 18/10/1 19/11/1 20/12/1
f 21/5/1 22/6/1 23/7/1 24/8/1
f 25/13/1 26/14/1 27/15/1 28/16/1
f 29/9/1 30/10/1 31/11/1 32/12/1
f 33/9/1 34/10/1 35/11/1 36/12/1
f 37/9/1 38/10/1 39/11/1 40/12/1
f 41/9/1 42/10/1 43/11/1 44/12/1
f 45/17/1 46/18/1 47/19/1 48/20/1
f 49/3/1 50/4/1 51/1/1 52/2/1
f 53/7/1 54/8/1 55/5/1 56/6/1
f 57/9/1 58/10/1 59/11/1 60/12/1
f 61/9/1 62/10/1 63/11/1 64/12/1
f 65/9/1 66/10/1 67/11/1 68/12/1
f 69/3/1 70/4/1 71/1/1 72/2/1
f 73/7/1 74/8/1 75/5/1 76/6/1
f 77/9/1 78/10/1 79/11/1 80/12/1
f 81/21/1 82/22/1 83/23/1 84/24/1
f 85/25/1 86/26/1 87/27/1 88/28/1
f 89/29/1 90/30/1 91/31/1 92/32/1
f 93/33/1 94/34/1 95/35/1 96/36/1
f 97/33/1 98/34/1 99/35/1 100/36/1
f 101/33/1 102/34/1 103/35/1 104/36/1
f 105/33/1 106/34/1 107/35/1 108/36/1
f 109/37/1 110/38/1 111/39/1 112/40/1

