# Tiled2Unity generated file. Do not modify by hand.
# Wavefront file for 'my_meshes_mesh_0001.obj'

# Vertices (Count = 24)
v -32 -16 0
v -48 -16 0
v -48 0 0
v -32 0 0
v -16 -16 0
v -32 -16 0
v -32 0 0
v -16 0 0
v 0 -16 0
v -16 -16 0
v -16 0 0
v 0 0 0
v -32 -32 0
v -48 -32 0
v -48 -16 0
v -32 -16 0
v -16 -32 0
v -32 -32 0
v -32 -16 0
v -16 -16 0
v 0 -32 0
v -16 -32 0
v -16 -16 0
v 0 -16 0

# Texture cooridinates (Count = 24)
vt 0.8933121 0.3936842
vt 0.9187898 0.3936842
vt 0.9187898 0.4273684
vt 0.8933121 0.4273684
vt 0.8662421 0.3936842
vt 0.8917198 0.3936842
vt 0.8917198 0.4273684
vt 0.8662421 0.4273684
vt 0.8391719 0.3936842
vt 0.8646497 0.3936842
vt 0.8646497 0.4273684
vt 0.8391719 0.4273684
vt 0.8933121 0.3578947
vt 0.9187898 0.3578947
vt 0.9187898 0.391579
vt 0.8933121 0.391579
vt 0.8662421 0.3578947
vt 0.8917198 0.3578947
vt 0.8917198 0.391579
vt 0.8662421 0.391579
vt 0.8391719 0.3578947
vt 0.8646497 0.3578947
vt 0.8646497 0.391579
vt 0.8391719 0.391579

# Normal
vn 0 0 -1

# Mesh description
g my_meshes_mesh_0001

# Faces
f 1/1/1 2/2/1 3/3/1 4/4/1
f 5/5/1 6/6/1 7/7/1 8/8/1
f 9/9/1 10/10/1 11/11/1 12/12/1
f 13/13/1 14/14/1 15/15/1 16/16/1
f 17/17/1 18/18/1 19/19/1 20/20/1
f 21/21/1 22/22/1 23/23/1 24/24/1

