# Tiled2Unity generated file. Do not modify by hand.
# Wavefront file for 'bar_mesh_0003.obj'

# Vertices (Count = 100)
v -336 -320 0
v -352 -320 0
v -352 -304 0
v -336 -304 0
v -320 -320 0
v -336 -320 0
v -336 -304 0
v -320 -304 0
v -304 -320 0
v -320 -320 0
v -320 -304 0
v -304 -304 0
v -288 -320 0
v -304 -320 0
v -304 -304 0
v -288 -304 0
v -272 -320 0
v -288 -320 0
v -288 -304 0
v -272 -304 0
v -256 -320 0
v -272 -320 0
v -272 -304 0
v -256 -304 0
v -240 -320 0
v -256 -320 0
v -256 -304 0
v -240 -304 0
v -224 -320 0
v -240 -320 0
v -240 -304 0
v -224 -304 0
v -208 -320 0
v -224 -320 0
v -224 -304 0
v -208 -304 0
v -192 -320 0
v -208 -320 0
v -208 -304 0
v -192 -304 0
v -336 -336 0
v -352 -336 0
v -352 -320 0
v -336 -320 0
v -320 -336 0
v -336 -336 0
v -336 -320 0
v -320 -320 0
v -304 -336 0
v -320 -336 0
v -320 -320 0
v -304 -320 0
v -288 -336 0
v -304 -336 0
v -304 -320 0
v -288 -320 0
v -272 -336 0
v -288 -336 0
v -288 -320 0
v -272 -320 0
v -256 -336 0
v -272 -336 0
v -272 -320 0
v -256 -320 0
v -240 -336 0
v -256 -336 0
v -256 -320 0
v -240 -320 0
v -224 -336 0
v -240 -336 0
v -240 -320 0
v -224 -320 0
v -208 -336 0
v -224 -336 0
v -224 -320 0
v -208 -320 0
v -192 -336 0
v -208 -336 0
v -208 -320 0
v -192 -320 0
v -336 -352 0
v -352 -352 0
v -352 -336 0
v -336 -336 0
v -192 -352 0
v -208 -352 0
v -208 -336 0
v -192 -336 0
v -192 -368 0
v -208 -368 0
v -208 -352 0
v -192 -352 0
v -336 -384 0
v -352 -384 0
v -352 -368 0
v -336 -368 0
v -192 -384 0
v -208 -384 0
v -208 -368 0
v -192 -368 0

# Texture cooridinates (Count = 36)
vt 0.4666667 0.3058823
vt 0.4980392 0.3058823
vt 0.4980392 0.4
vt 0.4666667 0.4
vt 0.4333333 0.3058823
vt 0.4647059 0.3058823
vt 0.4647059 0.4
vt 0.4333333 0.4
vt 0.3333333 0.3058823
vt 0.3647059 0.3058823
vt 0.3647059 0.4
vt 0.3333333 0.4
vt 0.4666667 0.2058824
vt 0.4980392 0.2058824
vt 0.4980392 0.3
vt 0.4666667 0.3
vt 0.4333333 0.2058824
vt 0.4647059 0.2058824
vt 0.4647059 0.3
vt 0.4333333 0.3
vt 0.3333333 0.2058824
vt 0.3647059 0.2058824
vt 0.3647059 0.3
vt 0.3333333 0.3
vt 0.1 0.7058823
vt 0.1313726 0.7058823
vt 0.1313726 0.8
vt 0.1 0.8
vt 0.4333333 0.1058823
vt 0.4647059 0.1058823
vt 0.4647059 0.2
vt 0.4333333 0.2
vt 0.3333333 0.1058823
vt 0.3647059 0.1058823
vt 0.3647059 0.2
vt 0.3333333 0.2

# Normal
vn 0 0 -1

# Mesh description
g bar_mesh_0003

# Faces
f 1/1/1 2/2/1 3/3/1 4/4/1
f 5/5/1 6/6/1 7/7/1 8/8/1
f 9/5/1 10/6/1 11/7/1 12/8/1
f 13/5/1 14/6/1 15/7/1 16/8/1
f 17/5/1 18/6/1 19/7/1 20/8/1
f 21/5/1 22/6/1 23/7/1 24/8/1
f 25/5/1 26/6/1 27/7/1 28/8/1
f 29/5/1 30/6/1 31/7/1 32/8/1
f 33/5/1 34/6/1 35/7/1 36/8/1
f 37/9/1 38/10/1 39/11/1 40/12/1
f 41/13/1 42/14/1 43/15/1 44/16/1
f 45/17/1 46/18/1 47/19/1 48/20/1
f 49/17/1 50/18/1 51/19/1 52/20/1
f 53/17/1 54/18/1 55/19/1 56/20/1
f 57/17/1 58/18/1 59/19/1 60/20/1
f 61/17/1 62/18/1 63/19/1 64/20/1
f 65/17/1 66/18/1 67/19/1 68/20/1
f 69/17/1 70/18/1 71/19/1 72/20/1
f 73/17/1 74/18/1 75/19/1 76/20/1
f 77/21/1 78/22/1 79/23/1 80/24/1
f 81/25/1 82/26/1 83/27/1 84/28/1
f 85/21/1 86/22/1 87/23/1 88/24/1
f 89/21/1 90/22/1 91/23/1 92/24/1
f 93/29/1 94/30/1 95/31/1 96/32/1
f 97/33/1 98/34/1 99/35/1 100/36/1

