# Tiled2Unity generated file. Do not modify by hand.
# Wavefront file for 'bar_mesh_0004.obj'

# Vertices (Count = 24)
v -336 -368 0
v -352 -368 0
v -352 -352 0
v -336 -352 0
v -320 -384 0
v -336 -384 0
v -336 -368 0
v -320 -368 0
v -304 -384 0
v -320 -384 0
v -320 -368 0
v -304 -368 0
v -288 -384 0
v -304 -384 0
v -304 -368 0
v -288 -368 0
v -272 -384 0
v -288 -384 0
v -288 -368 0
v -272 -368 0
v -256 -384 0
v -272 -384 0
v -272 -368 0
v -256 -368 0

# Texture cooridinates (Count = 20)
vt 0.4091904 0.05573773
vt 0.4442013 0.05573773
vt 0.4442013 0.1081967
vt 0.4091904 0.1081967
vt 0.3719912 0
vt 0.4070022 0
vt 0.4070022 0.052459
vt 0.3719912 0.052459
vt 0.3347921 0
vt 0.3698031 0
vt 0.3698031 0.052459
vt 0.3347921 0.052459
vt 0.5579869 0.1672131
vt 0.5929978 0.1672131
vt 0.5929978 0.2196721
vt 0.5579869 0.2196721
vt 0.4091904 0
vt 0.4442013 0
vt 0.4442013 0.052459
vt 0.4091904 0.052459

# Normal
vn 0 0 -1

# Mesh description
g bar_mesh_0004

# Faces
f 1/1/1 2/2/1 3/3/1 4/4/1
f 5/5/1 6/6/1 7/7/1 8/8/1
f 9/9/1 10/10/1 11/11/1 12/12/1
f 13/13/1 14/14/1 15/15/1 16/16/1
f 17/17/1 18/18/1 19/19/1 20/20/1
f 21/9/1 22/10/1 23/11/1 24/12/1

