# Tiled2Unity generated file. Do not modify by hand.
# Wavefront file for 'bar_mesh_0005.obj'

# Vertices (Count = 92)
v -80 -192 0
v -96 -192 0
v -96 -176 0
v -80 -176 0
v -64 -192 0
v -80 -192 0
v -80 -176 0
v -64 -176 0
v -48 -192 0
v -64 -192 0
v -64 -176 0
v -48 -176 0
v -32 -192 0
v -48 -192 0
v -48 -176 0
v -32 -176 0
v -80 -208 0
v -96 -208 0
v -96 -192 0
v -80 -192 0
v -64 -208 0
v -80 -208 0
v -80 -192 0
v -64 -192 0
v -48 -208 0
v -64 -208 0
v -64 -192 0
v -48 -192 0
v -32 -208 0
v -48 -208 0
v -48 -192 0
v -32 -192 0
v -80 -224 0
v -96 -224 0
v -96 -208 0
v -80 -208 0
v -64 -224 0
v -80 -224 0
v -80 -208 0
v -64 -208 0
v -48 -224 0
v -64 -224 0
v -64 -208 0
v -48 -208 0
v -32 -224 0
v -48 -224 0
v -48 -208 0
v -32 -208 0
v -288 -256 0
v -304 -256 0
v -304 -240 0
v -288 -240 0
v -144 -256 0
v -160 -256 0
v -160 -240 0
v -144 -240 0
v -64 -256 0
v -80 -256 0
v -80 -240 0
v -64 -240 0
v -64 -288 0
v -80 -288 0
v -80 -272 0
v -64 -272 0
v -144 -320 0
v -160 -320 0
v -160 -304 0
v -144 -304 0
v -80 -320 0
v -96 -320 0
v -96 -304 0
v -80 -304 0
v -64 -320 0
v -80 -320 0
v -80 -304 0
v -64 -304 0
v -336 -336 0
v -352 -336 0
v -352 -320 0
v -336 -320 0
v -80 -352 0
v -96 -352 0
v -96 -336 0
v -80 -336 0
v -64 -352 0
v -80 -352 0
v -80 -336 0
v -64 -336 0
v -32 -384 0
v -48 -384 0
v -48 -368 0
v -32 -368 0

# Texture cooridinates (Count = 40)
vt 0.03719912 0.05573773
vt 0.07221007 0.05573773
vt 0.07221007 0.1081967
vt 0.03719912 0.1081967
vt 0.2231947 0.05573773
vt 0.2582057 0.05573773
vt 0.2582057 0.1081967
vt 0.2231947 0.1081967
vt 0 0.05573773
vt 0.03501094 0.05573773
vt 0.03501094 0.1081967
vt 0 0.1081967
vt 0.1859956 0.05573773
vt 0.2210066 0.05573773
vt 0.2210066 0.1081967
vt 0.1859956 0.1081967
vt 0.2603939 0.05573773
vt 0.2954048 0.05573773
vt 0.2954048 0.1081967
vt 0.2603939 0.1081967
vt 0.2603939 0.3344262
vt 0.2954048 0.3344262
vt 0.2954048 0.3868852
vt 0.2603939 0.3868852
vt 0.2603939 0.947541
vt 0.2954048 0.947541
vt 0.2954048 1
vt 0.2603939 1
vt 0.1487965 0.8918033
vt 0.1838074 0.8918033
vt 0.1838074 0.9442623
vt 0.1487965 0.9442623
vt 0.1115974 0.8918033
vt 0.1466083 0.8918033
vt 0.1466083 0.9442623
vt 0.1115974 0.9442623
vt 0.8183808 0.7245902
vt 0.8533917 0.7245902
vt 0.8533917 0.7770492
vt 0.8183808 0.7770492

# Normal
vn 0 0 -1

# Mesh description
g bar_mesh_0005

# Faces
f 1/1/1 2/2/1 3/3/1 4/4/1
f 5/5/1 6/6/1 7/7/1 8/8/1
f 9/5/1 10/6/1 11/7/1 12/8/1
f 13/9/1 14/10/1 15/11/1 16/12/1
f 17/1/1 18/2/1 19/3/1 20/4/1
f 21/13/1 22/14/1 23/15/1 24/16/1
f 25/13/1 26/14/1 27/15/1 28/16/1
f 29/9/1 30/10/1 31/11/1 32/12/1
f 33/1/1 34/2/1 35/3/1 36/4/1
f 37/17/1 38/18/1 39/19/1 40/20/1
f 41/17/1 42/18/1 43/19/1 44/20/1
f 45/9/1 46/10/1 47/11/1 48/12/1
f 49/21/1 50/22/1 51/23/1 52/24/1
f 53/25/1 54/26/1 55/27/1 56/28/1
f 57/25/1 58/26/1 59/27/1 60/28/1
f 61/25/1 62/26/1 63/27/1 64/28/1
f 65/25/1 66/26/1 67/27/1 68/28/1
f 69/29/1 70/30/1 71/31/1 72/32/1
f 73/33/1 74/34/1 75/35/1 76/36/1
f 77/37/1 78/38/1 79/39/1 80/40/1
f 81/29/1 82/30/1 83/31/1 84/32/1
f 85/33/1 86/34/1 87/35/1 88/36/1
f 89/37/1 90/38/1 91/39/1 92/40/1

