# Tiled2Unity generated file. Do not modify by hand.
# Wavefront file for 'bar_mesh_0006.obj'

# Vertices (Count = 20)
v -240 -208 0
v -256 -208 0
v -256 -192 0
v -240 -192 0
v -176 -208 0
v -192 -208 0
v -192 -192 0
v -176 -192 0
v -112 -208 0
v -128 -208 0
v -128 -192 0
v -112 -192 0
v -304 -256 0
v -320 -256 0
v -320 -240 0
v -304 -240 0
v -272 -256 0
v -288 -256 0
v -288 -240 0
v -272 -240 0

# Texture cooridinates (Count = 8)
vt 0.3161157 0.743346
vt 0.3326446 0.743346
vt 0.3326446 0.7737643
vt 0.3161157 0.7737643
vt 0.3512397 0.904943
vt 0.3677686 0.904943
vt 0.3677686 0.9353612
vt 0.3512397 0.9353612

# Normal
vn 0 0 -1

# Mesh description
g bar_mesh_0006

# Faces
f 1/1/1 2/2/1 3/3/1 4/4/1
f 5/1/1 6/2/1 7/3/1 8/4/1
f 9/1/1 10/2/1 11/3/1 12/4/1
f 13/5/1 14/6/1 15/7/1 16/8/1
f 17/5/1 18/6/1 19/7/1 20/8/1

