# Tiled2Unity generated file. Do not modify by hand.
# Wavefront file for 'town_mesh_0006.obj'

# Vertices (Count = 48)
v -848 -608 0
v -864 -608 0
v -864 -592 0
v -848 -592 0
v -784 -608 0
v -800 -608 0
v -800 -592 0
v -784 -592 0
v -848 -656 0
v -864 -656 0
v -864 -640 0
v -848 -640 0
v -784 -656 0
v -800 -656 0
v -800 -640 0
v -784 -640 0
v -416 -704 0
v -432 -704 0
v -432 -688 0
v -416 -688 0
v -400 -704 0
v -416 -704 0
v -416 -688 0
v -400 -688 0
v -448 -720 0
v -464 -720 0
v -464 -704 0
v -448 -704 0
v -368 -720 0
v -384 -720 0
v -384 -704 0
v -368 -704 0
v -416 -752 0
v -432 -752 0
v -432 -736 0
v -416 -736 0
v -400 -752 0
v -416 -752 0
v -416 -736 0
v -400 -736 0
v -448 -768 0
v -464 -768 0
v -464 -752 0
v -448 -752 0
v -368 -768 0
v -384 -768 0
v -384 -752 0
v -368 -752 0

# Texture cooridinates (Count = 24)
vt 0.03333334 0.5058824
vt 0.06470589 0.5058824
vt 0.06470589 0.6
vt 0.03333334 0.6
vt 0 0.5058824
vt 0.03137255 0.5058824
vt 0.03137255 0.6
vt 0 0.6
vt 0.1333333 0.2058824
vt 0.1647059 0.2058824
vt 0.1647059 0.3
vt 0.1333333 0.3
vt 0.1 0.2058824
vt 0.1313726 0.2058824
vt 0.1313726 0.3
vt 0.1 0.3
vt 0.1333333 0.3058823
vt 0.1647059 0.3058823
vt 0.1647059 0.4
vt 0.1333333 0.4
vt 0.1 0.3058823
vt 0.1313726 0.3058823
vt 0.1313726 0.4
vt 0.1 0.4

# Normal
vn 0 0 -1

# Mesh description
g town_mesh_0006

# Faces
f 1/1/1 2/2/1 3/3/1 4/4/1
f 5/5/1 6/6/1 7/7/1 8/8/1
f 9/1/1 10/2/1 11/3/1 12/4/1
f 13/5/1 14/6/1 15/7/1 16/8/1
f 17/9/1 18/10/1 19/11/1 20/12/1
f 21/13/1 22/14/1 23/15/1 24/16/1
f 25/9/1 26/10/1 27/11/1 28/12/1
f 29/13/1 30/14/1 31/15/1 32/16/1
f 33/17/1 34/18/1 35/19/1 36/20/1
f 37/21/1 38/22/1 39/23/1 40/24/1
f 41/17/1 42/18/1 43/19/1 44/20/1
f 45/21/1 46/22/1 47/23/1 48/24/1

