# Tiled2Unity generated file. Do not modify by hand.
# Wavefront file for 'town_mesh_0013.obj'

# Vertices (Count = 352)
v -1184 -416 0
v -1200 -416 0
v -1200 -400 0
v -1184 -400 0
v -1168 -416 0
v -1184 -416 0
v -1184 -400 0
v -1168 -400 0
v -1152 -416 0
v -1168 -416 0
v -1168 -400 0
v -1152 -400 0
v -1136 -416 0
v -1152 -416 0
v -1152 -400 0
v -1136 -400 0
v -1120 -416 0
v -1136 -416 0
v -1136 -400 0
v -1120 -400 0
v -1104 -416 0
v -1120 -416 0
v -1120 -400 0
v -1104 -400 0
v -1088 -416 0
v -1104 -416 0
v -1104 -400 0
v -1088 -400 0
v -1072 -416 0
v -1088 -416 0
v -1088 -400 0
v -1072 -400 0
v -1056 -416 0
v -1072 -416 0
v -1072 -400 0
v -1056 -400 0
v -1040 -416 0
v -1056 -416 0
v -1056 -400 0
v -1040 -400 0
v -1024 -416 0
v -1040 -416 0
v -1040 -400 0
v -1024 -400 0
v -1008 -416 0
v -1024 -416 0
v -1024 -400 0
v -1008 -400 0
v -992 -416 0
v -1008 -416 0
v -1008 -400 0
v -992 -400 0
v -976 -416 0
v -992 -416 0
v -992 -400 0
v -976 -400 0
v -960 -416 0
v -976 -416 0
v -976 -400 0
v -960 -400 0
v -944 -416 0
v -960 -416 0
v -960 -400 0
v -944 -400 0
v -928 -416 0
v -944 -416 0
v -944 -400 0
v -928 -400 0
v -912 -416 0
v -928 -416 0
v -928 -400 0
v -912 -400 0
v -896 -416 0
v -912 -416 0
v -912 -400 0
v -896 -400 0
v -880 -416 0
v -896 -416 0
v -896 -400 0
v -880 -400 0
v -864 -416 0
v -880 -416 0
v -880 -400 0
v -864 -400 0
v -848 -416 0
v -864 -416 0
v -864 -400 0
v -848 -400 0
v -832 -416 0
v -848 -416 0
v -848 -400 0
v -832 -400 0
v -816 -416 0
v -832 -416 0
v -832 -400 0
v -816 -400 0
v -800 -416 0
v -816 -416 0
v -816 -400 0
v -800 -400 0
v -784 -416 0
v -800 -416 0
v -800 -400 0
v -784 -400 0
v -768 -416 0
v -784 -416 0
v -784 -400 0
v -768 -400 0
v -1184 -432 0
v -1200 -432 0
v -1200 -416 0
v -1184 -416 0
v -1168 -432 0
v -1184 -432 0
v -1184 -416 0
v -1168 -416 0
v -1152 -432 0
v -1168 -432 0
v -1168 -416 0
v -1152 -416 0
v -1136 -432 0
v -1152 -432 0
v -1152 -416 0
v -1136 -416 0
v -1120 -432 0
v -1136 -432 0
v -1136 -416 0
v -1120 -416 0
v -1104 -432 0
v -1120 -432 0
v -1120 -416 0
v -1104 -416 0
v -1088 -432 0
v -1104 -432 0
v -1104 -416 0
v -1088 -416 0
v -1072 -432 0
v -1088 -432 0
v -1088 -416 0
v -1072 -416 0
v -1056 -432 0
v -1072 -432 0
v -1072 -416 0
v -1056 -416 0
v -1040 -432 0
v -1056 -432 0
v -1056 -416 0
v -1040 -416 0
v -1024 -432 0
v -1040 -432 0
v -1040 -416 0
v -1024 -416 0
v -1008 -432 0
v -1024 -432 0
v -1024 -416 0
v -1008 -416 0
v -992 -432 0
v -1008 -432 0
v -1008 -416 0
v -992 -416 0
v -976 -432 0
v -992 -432 0
v -992 -416 0
v -976 -416 0
v -960 -432 0
v -976 -432 0
v -976 -416 0
v -960 -416 0
v -944 -432 0
v -960 -432 0
v -960 -416 0
v -944 -416 0
v -928 -432 0
v -944 -432 0
v -944 -416 0
v -928 -416 0
v -912 -432 0
v -928 -432 0
v -928 -416 0
v -912 -416 0
v -896 -432 0
v -912 -432 0
v -912 -416 0
v -896 -416 0
v -880 -432 0
v -896 -432 0
v -896 -416 0
v -880 -416 0
v -864 -432 0
v -880 -432 0
v -880 -416 0
v -864 -416 0
v -848 -432 0
v -864 -432 0
v -864 -416 0
v -848 -416 0
v -832 -432 0
v -848 -432 0
v -848 -416 0
v -832 -416 0
v -816 -432 0
v -832 -432 0
v -832 -416 0
v -816 -416 0
v -800 -432 0
v -816 -432 0
v -816 -416 0
v -800 -416 0
v -784 -432 0
v -800 -432 0
v -800 -416 0
v -784 -416 0
v -768 -432 0
v -784 -432 0
v -784 -416 0
v -768 -416 0
v -1184 -448 0
v -1200 -448 0
v -1200 -432 0
v -1184 -432 0
v -1168 -448 0
v -1184 -448 0
v -1184 -432 0
v -1168 -432 0
v -1152 -448 0
v -1168 -448 0
v -1168 -432 0
v -1152 -432 0
v -1136 -448 0
v -1152 -448 0
v -1152 -432 0
v -1136 -432 0
v -1120 -448 0
v -1136 -448 0
v -1136 -432 0
v -1120 -432 0
v -1104 -448 0
v -1120 -448 0
v -1120 -432 0
v -1104 -432 0
v -1088 -448 0
v -1104 -448 0
v -1104 -432 0
v -1088 -432 0
v -1072 -448 0
v -1088 -448 0
v -1088 -432 0
v -1072 -432 0
v -1056 -448 0
v -1072 -448 0
v -1072 -432 0
v -1056 -432 0
v -1040 -448 0
v -1056 -448 0
v -1056 -432 0
v -1040 -432 0
v -1024 -448 0
v -1040 -448 0
v -1040 -432 0
v -1024 -432 0
v -1008 -448 0
v -1024 -448 0
v -1024 -432 0
v -1008 -432 0
v -992 -448 0
v -1008 -448 0
v -1008 -432 0
v -992 -432 0
v -976 -448 0
v -992 -448 0
v -992 -432 0
v -976 -432 0
v -960 -448 0
v -976 -448 0
v -976 -432 0
v -960 -432 0
v -944 -448 0
v -960 -448 0
v -960 -432 0
v -944 -432 0
v -928 -448 0
v -944 -448 0
v -944 -432 0
v -928 -432 0
v -912 -448 0
v -928 -448 0
v -928 -432 0
v -912 -432 0
v -896 -448 0
v -912 -448 0
v -912 -432 0
v -896 -432 0
v -880 -448 0
v -896 -448 0
v -896 -432 0
v -880 -432 0
v -864 -448 0
v -880 -448 0
v -880 -432 0
v -864 -432 0
v -848 -448 0
v -864 -448 0
v -864 -432 0
v -848 -432 0
v -832 -448 0
v -848 -448 0
v -848 -432 0
v -832 -432 0
v -816 -448 0
v -832 -448 0
v -832 -432 0
v -816 -432 0
v -800 -448 0
v -816 -448 0
v -816 -432 0
v -800 -432 0
v -784 -448 0
v -800 -448 0
v -800 -432 0
v -784 -432 0
v -768 -448 0
v -784 -448 0
v -784 -432 0
v -768 -432 0
v -880 -544 0
v -896 -544 0
v -896 -528 0
v -880 -528 0
v -752 -544 0
v -768 -544 0
v -768 -528 0
v -752 -528 0
v -880 -560 0
v -896 -560 0
v -896 -544 0
v -880 -544 0
v -752 -560 0
v -768 -560 0
v -768 -544 0
v -752 -544 0
v -240 -640 0
v -256 -640 0
v -256 -624 0
v -240 -624 0
v -176 -640 0
v -192 -640 0
v -192 -624 0
v -176 -624 0
v -240 -688 0
v -256 -688 0
v -256 -672 0
v -240 -672 0

# Texture cooridinates (Count = 40)
vt 0.2073171 0.390164
vt 0.2398374 0.390164
vt 0.2398374 0.442623
vt 0.2073171 0.442623
vt 0.1727642 0.390164
vt 0.2052846 0.390164
vt 0.2052846 0.442623
vt 0.1727642 0.442623
vt 0.2073171 0.3344262
vt 0.2398374 0.3344262
vt 0.2398374 0.3868852
vt 0.2073171 0.3868852
vt 0.1727642 0.3344262
vt 0.2052846 0.3344262
vt 0.2052846 0.3868852
vt 0.1727642 0.3868852
vt 0.2073171 0.2786885
vt 0.2398374 0.2786885
vt 0.2398374 0.3311476
vt 0.2073171 0.3311476
vt 0.2764228 0.390164
vt 0.3089431 0.390164
vt 0.3089431 0.442623
vt 0.2764228 0.442623
vt 0.2418699 0.390164
vt 0.2743903 0.390164
vt 0.2743903 0.442623
vt 0.2418699 0.442623
vt 0.2418699 0.3344262
vt 0.2743903 0.3344262
vt 0.2743903 0.3868852
vt 0.2418699 0.3868852
vt 0.5853658 0.8918033
vt 0.5853658 0.9442623
vt 0.5528455 0.9442623
vt 0.5528455 0.8918033
vt 0.5182927 0.7245902
vt 0.550813 0.7245902
vt 0.550813 0.7770492
vt 0.5182927 0.7770492

# Normal
vn 0 0 -1

# Mesh description
g town_mesh_0013

# Faces
f 1/1/1 2/2/1 3/3/1 4/4/1
f 5/1/1 6/2/1 7/3/1 8/4/1
f 9/1/1 10/2/1 11/3/1 12/4/1
f 13/1/1 14/2/1 15/3/1 16/4/1
f 17/1/1 18/2/1 19/3/1 20/4/1
f 21/1/1 22/2/1 23/3/1 24/4/1
f 25/1/1 26/2/1 27/3/1 28/4/1
f 29/1/1 30/2/1 31/3/1 32/4/1
f 33/1/1 34/2/1 35/3/1 36/4/1
f 37/1/1 38/2/1 39/3/1 40/4/1
f 41/1/1 42/2/1 43/3/1 44/4/1
f 45/1/1 46/2/1 47/3/1 48/4/1
f 49/1/1 50/2/1 51/3/1 52/4/1
f 53/1/1 54/2/1 55/3/1 56/4/1
f 57/1/1 58/2/1 59/3/1 60/4/1
f 61/1/1 62/2/1 63/3/1 64/4/1
f 65/1/1 66/2/1 67/3/1 68/4/1
f 69/1/1 70/2/1 71/3/1 72/4/1
f 73/1/1 74/2/1 75/3/1 76/4/1
f 77/1/1 78/2/1 79/3/1 80/4/1
f 81/1/1 82/2/1 83/3/1 84/4/1
f 85/1/1 86/2/1 87/3/1 88/4/1
f 89/1/1 90/2/1 91/3/1 92/4/1
f 93/1/1 94/2/1 95/3/1 96/4/1
f 97/1/1 98/2/1 99/3/1 100/4/1
f 101/1/1 102/2/1 103/3/1 104/4/1
f 105/5/1 106/6/1 107/7/1 108/8/1
f 109/9/1 110/10/1 111/11/1 112/12/1
f 113/9/1 114/10/1 115/11/1 116/12/1
f 117/9/1 118/10/1 119/11/1 120/12/1
f 121/9/1 122/10/1 123/11/1 124/12/1
f 125/9/1 126/10/1 127/11/1 128/12/1
f 129/9/1 130/10/1 131/11/1 132/12/1
f 133/9/1 134/10/1 135/11/1 136/12/1
f 137/9/1 138/10/1 139/11/1 140/12/1
f 141/9/1 142/10/1 143/11/1 144/12/1
f 145/9/1 146/10/1 147/11/1 148/12/1
f 149/9/1 150/10/1 151/11/1 152/12/1
f 153/9/1 154/10/1 155/11/1 156/12/1
f 157/9/1 158/10/1 159/11/1 160/12/1
f 161/9/1 162/10/1 163/11/1 164/12/1
f 165/9/1 166/10/1 167/11/1 168/12/1
f 169/9/1 170/10/1 171/11/1 172/12/1
f 173/9/1 174/10/1 175/11/1 176/12/1
f 177/9/1 178/10/1 179/11/1 180/12/1
f 181/9/1 182/10/1 183/11/1 184/12/1
f 185/9/1 186/10/1 187/11/1 188/12/1
f 189/9/1 190/10/1 191/11/1 192/12/1
f 193/9/1 194/10/1 195/11/1 196/12/1
f 197/9/1 198/10/1 199/11/1 200/12/1
f 201/9/1 202/10/1 203/11/1 204/12/1
f 205/9/1 206/10/1 207/11/1 208/12/1
f 209/9/1 210/10/1 211/11/1 212/12/1
f 213/13/1 214/14/1 215/15/1 216/16/1
f 217/17/1 218/18/1 219/19/1 220/20/1
f 221/17/1 222/18/1 223/19/1 224/20/1
f 225/17/1 226/18/1 227/19/1 228/20/1
f 229/17/1 230/18/1 231/19/1 232/20/1
f 233/17/1 234/18/1 235/19/1 236/20/1
f 237/17/1 238/18/1 239/19/1 240/20/1
f 241/17/1 242/18/1 243/19/1 244/20/1
f 245/17/1 246/18/1 247/19/1 248/20/1
f 249/17/1 250/18/1 251/19/1 252/20/1
f 253/17/1 254/18/1 255/19/1 256/20/1
f 257/17/1 258/18/1 259/19/1 260/20/1
f 261/17/1 262/18/1 263/19/1 264/20/1
f 265/17/1 266/18/1 267/19/1 268/20/1
f 269/17/1 270/18/1 271/19/1 272/20/1
f 273/17/1 274/18/1 275/19/1 276/20/1
f 277/17/1 278/18/1 279/19/1 280/20/1
f 281/17/1 282/18/1 283/19/1 284/20/1
f 285/17/1 286/18/1 287/19/1 288/20/1
f 289/17/1 290/18/1 291/19/1 292/20/1
f 293/17/1 294/18/1 295/19/1 296/20/1
f 297/21/1 298/22/1 299/23/1 300/24/1
f 301/9/1 302/10/1 303/11/1 304/12/1
f 305/9/1 306/10/1 307/11/1 308/12/1
f 309/9/1 310/10/1 311/11/1 312/12/1
f 313/9/1 314/10/1 315/11/1 316/12/1
f 317/9/1 318/10/1 319/11/1 320/12/1
f 321/13/1 322/14/1 323/15/1 324/16/1
f 325/25/1 326/26/1 327/27/1 328/28/1
f 329/5/1 330/6/1 331/7/1 332/8/1
f 333/29/1 334/30/1 335/31/1 336/32/1
f 337/13/1 338/14/1 339/15/1 340/16/1
f 341/33/1 342/34/1 343/35/1 344/36/1
f 345/33/1 346/34/1 347/35/1 348/36/1
f 349/37/1 350/38/1 351/39/1 352/40/1

