# Tiled2Unity generated file. Do not modify by hand.
# Wavefront file for 'house_bathroom_mesh_0002.obj'

# Vertices (Count = 12)
v -32 -16 0
v -48 -16 0
v -48 0 0
v -32 0 0
v -16 -16 0
v -32 -16 0
v -32 0 0
v -16 0 0
v -32 -80 0
v -48 -80 0
v -48 -64 0
v -32 -64 0

# Texture cooridinates (Count = 12)
vt 0.6695843 0.2786885
vt 0.7045952 0.2786885
vt 0.7045952 0.3311476
vt 0.6695843 0.3311476
vt 0.595186 0.2786885
vt 0.6301969 0.2786885
vt 0.6301969 0.3311476
vt 0.595186 0.3311476
vt 0.8183808 0.7245902
vt 0.8533917 0.7245902
vt 0.8533917 0.7770492
vt 0.8183808 0.7770492

# Normal
vn 0 0 -1

# Mesh description
g house_bathroom_mesh_0002

# Faces
f 1/1/1 2/2/1 3/3/1 4/4/1
f 5/5/1 6/6/1 7/7/1 8/8/1
f 9/9/1 10/10/1 11/11/1 12/12/1

