# Tiled2Unity generated file. Do not modify by hand.
# Wavefront file for 'dog-shelter_mesh_0005.obj'

# Vertices (Count = 40)
v -160 -80 0
v -176 -80 0
v -176 -64 0
v -160 -64 0
v -160 -112 0
v -176 -112 0
v -176 -96 0
v -160 -96 0
v -144 -112 0
v -160 -112 0
v -160 -96 0
v -144 -96 0
v -128 -112 0
v -144 -112 0
v -144 -96 0
v -128 -96 0
v -112 -112 0
v -128 -112 0
v -128 -96 0
v -112 -96 0
v -96 -112 0
v -112 -112 0
v -112 -96 0
v -96 -96 0
v -80 -112 0
v -96 -112 0
v -96 -96 0
v -80 -96 0
v -64 -112 0
v -80 -112 0
v -80 -96 0
v -64 -96 0
v -48 -112 0
v -64 -112 0
v -64 -96 0
v -48 -96 0
v -32 -112 0
v -48 -112 0
v -48 -96 0
v -32 -96 0

# Texture cooridinates (Count = 16)
vt 0.595186 0.947541
vt 0.6301969 0.947541
vt 0.6301969 1
vt 0.595186 1
vt 0.5579869 0.2229508
vt 0.5929978 0.2229508
vt 0.5929978 0.2754098
vt 0.5579869 0.2754098
vt 0.3719912 0
vt 0.4070022 0
vt 0.4070022 0.052459
vt 0.3719912 0.052459
vt 0.5207878 0.2229508
vt 0.5557987 0.2229508
vt 0.5557987 0.2754098
vt 0.5207878 0.2754098

# Normal
vn 0 0 -1

# Mesh description
g dog-shelter_mesh_0005

# Faces
f 1/1/1 2/2/1 3/3/1 4/4/1
f 5/5/1 6/6/1 7/7/1 8/8/1
f 9/9/1 10/10/1 11/11/1 12/12/1
f 13/9/1 14/10/1 15/11/1 16/12/1
f 17/9/1 18/10/1 19/11/1 20/12/1
f 21/9/1 22/10/1 23/11/1 24/12/1
f 25/9/1 26/10/1 27/11/1 28/12/1
f 29/9/1 30/10/1 31/11/1 32/12/1
f 33/9/1 34/10/1 35/11/1 36/12/1
f 37/13/1 38/14/1 39/15/1 40/16/1

