# Tiled2Unity generated file. Do not modify by hand.
# Wavefront file for 'dog-shelter_mesh_0004.obj'

# Vertices (Count = 12)
v -32 -288 0
v -48 -288 0
v -48 -272 0
v -32 -272 0
v -32 -304 0
v -48 -304 0
v -48 -288 0
v -32 -288 0
v -32 -320 0
v -48 -320 0
v -48 -304 0
v -32 -304 0

# Texture cooridinates (Count = 4)
vt 0.7811816 0.6688524
vt 0.8161926 0.6688524
vt 0.8161926 0.7213115
vt 0.7811816 0.7213115

# Normal
vn 0 0 -1

# Mesh description
g dog-shelter_mesh_0004

# Faces
f 1/1/1 2/2/1 3/3/1 4/4/1
f 5/1/1 6/2/1 7/3/1 8/4/1
f 9/1/1 10/2/1 11/3/1 12/4/1

