# Tiled2Unity generated file. Do not modify by hand.
# Wavefront file for 'bad_bar_mesh_0009.obj'

# Vertices (Count = 48)
v -208 -64 0
v -224 -64 0
v -224 -48 0
v -208 -48 0
v -32 -80 0
v -48 -80 0
v -48 -64 0
v -32 -64 0
v -16 -96 0
v -32 -96 0
v -32 -80 0
v -16 -80 0
v -256 -128 0
v -272 -128 0
v -272 -112 0
v -256 -112 0
v -288 -192 0
v -304 -192 0
v -304 -176 0
v -288 -176 0
v -16 -192 0
v -32 -192 0
v -32 -176 0
v -16 -176 0
v -16 -240 0
v -32 -240 0
v -32 -224 0
v -16 -224 0
v -288 -256 0
v -304 -256 0
v -304 -240 0
v -288 -240 0
v -288 -288 0
v -304 -288 0
v -304 -272 0
v -288 -272 0
v -16 -288 0
v -32 -288 0
v -32 -272 0
v -16 -272 0
v -272 -320 0
v -288 -320 0
v -288 -304 0
v -272 -304 0
v -240 -320 0
v -256 -320 0
v -256 -304 0
v -240 -304 0

# Texture cooridinates (Count = 4)
vt 0 0.9058824
vt 0.03137255 0.9058824
vt 0.03137255 1
vt 0 1

# Normal
vn 0 0 -1

# Mesh description
g bad_bar_mesh_0009

# Faces
f 1/1/1 2/2/1 3/3/1 4/4/1
f 5/1/1 6/2/1 7/3/1 8/4/1
f 9/1/1 10/2/1 11/3/1 12/4/1
f 13/1/1 14/2/1 15/3/1 16/4/1
f 17/1/1 18/2/1 19/3/1 20/4/1
f 21/1/1 22/2/1 23/3/1 24/4/1
f 25/1/1 26/2/1 27/3/1 28/4/1
f 29/1/1 30/2/1 31/3/1 32/4/1
f 33/1/1 34/2/1 35/3/1 36/4/1
f 37/1/1 38/2/1 39/3/1 40/4/1
f 41/1/1 42/2/1 43/3/1 44/4/1
f 45/1/1 46/2/1 47/3/1 48/4/1

