# Tiled2Unity generated file. Do not modify by hand.
# Wavefront file for 'bad_bar_mesh_0008.obj'

# Vertices (Count = 8)
v -144 -128 0
v -160 -128 0
v -160 -112 0
v -144 -112 0
v -144 -176 0
v -160 -176 0
v -160 -160 0
v -144 -160 0

# Texture cooridinates (Count = 8)
vt 0.3 0.8058823
vt 0.3313726 0.8058823
vt 0.3313726 0.9
vt 0.3 0.9
vt 0.3333333 0.8058823
vt 0.3647059 0.8058823
vt 0.3647059 0.9
vt 0.3333333 0.9

# Normal
vn 0 0 -1

# Mesh description
g bad_bar_mesh_0008

# Faces
f 1/1/1 2/2/1 3/3/1 4/4/1
f 5/5/1 6/6/1 7/7/1 8/8/1

