# Tiled2Unity generated file. Do not modify by hand.
# Wavefront file for 'bad_bar_mesh_0005.obj'

# Vertices (Count = 16)
v -208 -32 0
v -224 -32 0
v -224 -16 0
v -208 -16 0
v -80 -32 0
v -96 -32 0
v -96 -16 0
v -80 -16 0
v -144 -144 0
v -160 -144 0
v -160 -128 0
v -144 -128 0
v -144 -160 0
v -160 -160 0
v -160 -144 0
v -144 -144 0

# Texture cooridinates (Count = 8)
vt 0.7038217 0.1789474
vt 0.7292994 0.1789474
vt 0.7292994 0.2126316
vt 0.7038217 0.2126316
vt 0.1353503 0.3578947
vt 0.160828 0.3578947
vt 0.160828 0.391579
vt 0.1353503 0.391579

# Normal
vn 0 0 -1

# Mesh description
g bad_bar_mesh_0005

# Faces
f 1/1/1 2/2/1 3/3/1 4/4/1
f 5/1/1 6/2/1 7/3/1 8/4/1
f 9/5/1 10/6/1 11/7/1 12/8/1
f 13/5/1 14/6/1 15/7/1 16/8/1

