# Tiled2Unity generated file. Do not modify by hand.
# Wavefront file for 'day-care_mesh_0002.obj'

# Vertices (Count = 440)
v -208 -80 0
v -224 -80 0
v -224 -64 0
v -208 -64 0
v -192 -80 0
v -208 -80 0
v -208 -64 0
v -192 -64 0
v -176 -80 0
v -192 -80 0
v -192 -64 0
v -176 -64 0
v -160 -80 0
v -176 -80 0
v -176 -64 0
v -160 -64 0
v -144 -80 0
v -160 -80 0
v -160 -64 0
v -144 -64 0
v -128 -80 0
v -144 -80 0
v -144 -64 0
v -128 -64 0
v -112 -80 0
v -128 -80 0
v -128 -64 0
v -112 -64 0
v -96 -80 0
v -112 -80 0
v -112 -64 0
v -96 -64 0
v -80 -80 0
v -96 -80 0
v -96 -64 0
v -80 -64 0
v -64 -80 0
v -80 -80 0
v -80 -64 0
v -64 -64 0
v -48 -80 0
v -64 -80 0
v -64 -64 0
v -48 -64 0
v -32 -80 0
v -48 -80 0
v -48 -64 0
v -32 -64 0
v -16 -80 0
v -32 -80 0
v -32 -64 0
v -16 -64 0
v 0 -80 0
v -16 -80 0
v -16 -64 0
v 0 -64 0
v -208 -96 0
v -224 -96 0
v -224 -80 0
v -208 -80 0
v -192 -96 0
v -208 -96 0
v -208 -80 0
v -192 -80 0
v -176 -96 0
v -192 -96 0
v -192 -80 0
v -176 -80 0
v -160 -96 0
v -176 -96 0
v -176 -80 0
v -160 -80 0
v -144 -96 0
v -160 -96 0
v -160 -80 0
v -144 -80 0
v -128 -96 0
v -144 -96 0
v -144 -80 0
v -128 -80 0
v -112 -96 0
v -128 -96 0
v -128 -80 0
v -112 -80 0
v -96 -96 0
v -112 -96 0
v -112 -80 0
v -96 -80 0
v -80 -96 0
v -96 -96 0
v -96 -80 0
v -80 -80 0
v -64 -96 0
v -80 -96 0
v -80 -80 0
v -64 -80 0
v -48 -96 0
v -64 -96 0
v -64 -80 0
v -48 -80 0
v -32 -96 0
v -48 -96 0
v -48 -80 0
v -32 -80 0
v -16 -96 0
v -32 -96 0
v -32 -80 0
v -16 -80 0
v 0 -96 0
v -16 -96 0
v -16 -80 0
v 0 -80 0
v -208 -112 0
v -224 -112 0
v -224 -96 0
v -208 -96 0
v -192 -112 0
v -208 -112 0
v -208 -96 0
v -192 -96 0
v -176 -112 0
v -192 -112 0
v -192 -96 0
v -176 -96 0
v -160 -112 0
v -176 -112 0
v -176 -96 0
v -160 -96 0
v -144 -112 0
v -160 -112 0
v -160 -96 0
v -144 -96 0
v -128 -112 0
v -144 -112 0
v -144 -96 0
v -128 -96 0
v -112 -112 0
v -128 -112 0
v -128 -96 0
v -112 -96 0
v -96 -112 0
v -112 -112 0
v -112 -96 0
v -96 -96 0
v -80 -112 0
v -96 -112 0
v -96 -96 0
v -80 -96 0
v -64 -112 0
v -80 -112 0
v -80 -96 0
v -64 -96 0
v -48 -112 0
v -64 -112 0
v -64 -96 0
v -48 -96 0
v -32 -112 0
v -48 -112 0
v -48 -96 0
v -32 -96 0
v -16 -112 0
v -32 -112 0
v -32 -96 0
v -16 -96 0
v 0 -112 0
v -16 -112 0
v -16 -96 0
v 0 -96 0
v -208 -128 0
v -224 -128 0
v -224 -112 0
v -208 -112 0
v 0 -128 0
v -16 -128 0
v -16 -112 0
v 0 -112 0
v -208 -144 0
v -224 -144 0
v -224 -128 0
v -208 -128 0
v 0 -144 0
v -16 -144 0
v -16 -128 0
v 0 -128 0
v -208 -160 0
v -224 -160 0
v -224 -144 0
v -208 -144 0
v 0 -160 0
v -16 -160 0
v -16 -144 0
v 0 -144 0
v -208 -176 0
v -224 -176 0
v -224 -160 0
v -208 -160 0
v -176 -176 0
v -192 -176 0
v -192 -160 0
v -176 -160 0
v -160 -176 0
v -176 -176 0
v -176 -160 0
v -160 -160 0
v -144 -176 0
v -160 -176 0
v -160 -160 0
v -144 -160 0
v -128 -176 0
v -144 -176 0
v -144 -160 0
v -128 -160 0
v -112 -176 0
v -128 -176 0
v -128 -160 0
v -112 -160 0
v -96 -176 0
v -112 -176 0
v -112 -160 0
v -96 -160 0
v -80 -176 0
v -96 -176 0
v -96 -160 0
v -80 -160 0
v -64 -176 0
v -80 -176 0
v -80 -160 0
v -64 -160 0
v -48 -176 0
v -64 -176 0
v -64 -160 0
v -48 -160 0
v -32 -176 0
v -48 -176 0
v -48 -160 0
v -32 -160 0
v 0 -176 0
v -16 -176 0
v -16 -160 0
v 0 -160 0
v -208 -192 0
v -224 -192 0
v -224 -176 0
v -208 -176 0
v -176 -192 0
v -192 -192 0
v -192 -176 0
v -176 -176 0
v -160 -192 0
v -176 -192 0
v -176 -176 0
v -160 -176 0
v -144 -192 0
v -160 -192 0
v -160 -176 0
v -144 -176 0
v -128 -192 0
v -144 -192 0
v -144 -176 0
v -128 -176 0
v -112 -192 0
v -128 -192 0
v -128 -176 0
v -112 -176 0
v -96 -192 0
v -112 -192 0
v -112 -176 0
v -96 -176 0
v -80 -192 0
v -96 -192 0
v -96 -176 0
v -80 -176 0
v -64 -192 0
v -80 -192 0
v -80 -176 0
v -64 -176 0
v -48 -192 0
v -64 -192 0
v -64 -176 0
v -48 -176 0
v -32 -192 0
v -48 -192 0
v -48 -176 0
v -32 -176 0
v 0 -192 0
v -16 -192 0
v -16 -176 0
v 0 -176 0
v -208 -208 0
v -224 -208 0
v -224 -192 0
v -208 -192 0
v -176 -208 0
v -192 -208 0
v -192 -192 0
v -176 -192 0
v -160 -208 0
v -176 -208 0
v -176 -192 0
v -160 -192 0
v -144 -208 0
v -160 -208 0
v -160 -192 0
v -144 -192 0
v -128 -208 0
v -144 -208 0
v -144 -192 0
v -128 -192 0
v -112 -208 0
v -128 -208 0
v -128 -192 0
v -112 -192 0
v -96 -208 0
v -112 -208 0
v -112 -192 0
v -96 -192 0
v -80 -208 0
v -96 -208 0
v -96 -192 0
v -80 -192 0
v -64 -208 0
v -80 -208 0
v -80 -192 0
v -64 -192 0
v -48 -208 0
v -64 -208 0
v -64 -192 0
v -48 -192 0
v -32 -208 0
v -48 -208 0
v -48 -192 0
v -32 -192 0
v 0 -208 0
v -16 -208 0
v -16 -192 0
v 0 -192 0
v -208 -224 0
v -224 -224 0
v -224 -208 0
v -208 -208 0
v -176 -224 0
v -192 -224 0
v -192 -208 0
v -176 -208 0
v -160 -224 0
v -176 -224 0
v -176 -208 0
v -160 -208 0
v -144 -224 0
v -160 -224 0
v -160 -208 0
v -144 -208 0
v -128 -224 0
v -144 -224 0
v -144 -208 0
v -128 -208 0
v -112 -224 0
v -128 -224 0
v -128 -208 0
v -112 -208 0
v -96 -224 0
v -112 -224 0
v -112 -208 0
v -96 -208 0
v -80 -224 0
v -96 -224 0
v -96 -208 0
v -80 -208 0
v -64 -224 0
v -80 -224 0
v -80 -208 0
v -64 -208 0
v -48 -224 0
v -64 -224 0
v -64 -208 0
v -48 -208 0
v -32 -224 0
v -48 -224 0
v -48 -208 0
v -32 -208 0
v 0 -224 0
v -16 -224 0
v -16 -208 0
v 0 -208 0
v -208 -240 0
v -224 -240 0
v -224 -224 0
v -208 -224 0
v -176 -240 0
v -192 -240 0
v -192 -224 0
v -176 -224 0
v -160 -240 0
v -176 -240 0
v -176 -224 0
v -160 -224 0
v -144 -240 0
v -160 -240 0
v -160 -224 0
v -144 -224 0
v -128 -240 0
v -144 -240 0
v -144 -224 0
v -128 -224 0
v -112 -240 0
v -128 -240 0
v -128 -224 0
v -112 -224 0
v -96 -240 0
v -112 -240 0
v -112 -224 0
v -96 -224 0
v -80 -240 0
v -96 -240 0
v -96 -224 0
v -80 -224 0
v -64 -240 0
v -80 -240 0
v -80 -224 0
v -64 -224 0
v -48 -240 0
v -64 -240 0
v -64 -224 0
v -48 -224 0
v -32 -240 0
v -48 -240 0
v -48 -224 0
v -32 -224 0
v 0 -240 0
v -16 -240 0
v -16 -224 0
v 0 -224 0
v -208 -256 0
v -224 -256 0
v -224 -240 0
v -208 -240 0
v 0 -256 0
v -16 -256 0
v -16 -240 0
v 0 -240 0

# Texture cooridinates (Count = 96)
vt 0.2985537 0.5817491
vt 0.3150826 0.5817491
vt 0.3150826 0.6121673
vt 0.2985537 0.6121673
vt 0.2458678 0.5817491
vt 0.2623967 0.5817491
vt 0.2623967 0.6121673
vt 0.2458678 0.6121673
vt 0.2809917 0.5817491
vt 0.2975207 0.5817491
vt 0.2975207 0.6121673
vt 0.2809917 0.6121673
vt 0.2283058 0.5171102
vt 0.2448347 0.5171102
vt 0.2448347 0.5475285
vt 0.2283058 0.5475285
vt 0.3336777 0.2585551
vt 0.3502066 0.2585551
vt 0.3502066 0.2889734
vt 0.3336777 0.2889734
vt 0.3161157 0.2585551
vt 0.3326446 0.2585551
vt 0.3326446 0.2889734
vt 0.3161157 0.2889734
vt 0.2985537 0.2585551
vt 0.3150826 0.2585551
vt 0.3150826 0.2889734
vt 0.2985537 0.2889734
vt 0.2634298 0.5494297
vt 0.2799587 0.5494297
vt 0.2799587 0.5798479
vt 0.2634298 0.5798479
vt 0.2458678 0.1939163
vt 0.2623967 0.1939163
vt 0.2623967 0.2243346
vt 0.2458678 0.2243346
vt 0.3336777 0.2262357
vt 0.3502066 0.2262357
vt 0.3502066 0.256654
vt 0.3336777 0.256654
vt 0.3161157 0.2262357
vt 0.3326446 0.2262357
vt 0.3326446 0.256654
vt 0.3161157 0.256654
vt 0.2985537 0.2262357
vt 0.3150826 0.2262357
vt 0.3150826 0.256654
vt 0.2985537 0.256654
vt 0.3326446 0
vt 0.3326446 0.03041828
vt 0.3161157 0.03041828
vt 0.3161157 0
vt 0.3677686 0
vt 0.3677686 0.03041828
vt 0.3512397 0.03041828
vt 0.3512397 0
vt 0.2283058 0.5494297
vt 0.2448347 0.5494297
vt 0.2448347 0.5798479
vt 0.2283058 0.5798479
vt 0.2107438 0.4524715
vt 0.2272727 0.4524715
vt 0.2272727 0.4828897
vt 0.2107438 0.4828897
vt 0.1931818 0.4524715
vt 0.2097107 0.4524715
vt 0.2097107 0.4828897
vt 0.1931818 0.4828897
vt 0.1756198 0.4524715
vt 0.1921488 0.4524715
vt 0.1921488 0.4828897
vt 0.1756198 0.4828897
vt 0.2107438 0.4201521
vt 0.2272727 0.4201521
vt 0.2272727 0.4505703
vt 0.2107438 0.4505703
vt 0.1931818 0.4201521
vt 0.2097107 0.4201521
vt 0.2097107 0.4505703
vt 0.1931818 0.4505703
vt 0.1756198 0.4201521
vt 0.1921488 0.4201521
vt 0.1921488 0.4505703
vt 0.1756198 0.4505703
vt 0.2107438 0.3878327
vt 0.2272727 0.3878327
vt 0.2272727 0.418251
vt 0.2107438 0.418251
vt 0.1931818 0.3878327
vt 0.2097107 0.3878327
vt 0.2097107 0.418251
vt 0.1931818 0.418251
vt 0.1756198 0.3878327
vt 0.1921488 0.3878327
vt 0.1921488 0.418251
vt 0.1756198 0.418251

# Normal
vn 0 0 -1

# Mesh description
g day-care_mesh_0002

# Faces
f 1/1/1 2/2/1 3/3/1 4/4/1
f 5/5/1 6/6/1 7/7/1 8/8/1
f 9/5/1 10/6/1 11/7/1 12/8/1
f 13/5/1 14/6/1 15/7/1 16/8/1
f 17/5/1 18/6/1 19/7/1 20/8/1
f 21/5/1 22/6/1 23/7/1 24/8/1
f 25/5/1 26/6/1 27/7/1 28/8/1
f 29/5/1 30/6/1 31/7/1 32/8/1
f 33/5/1 34/6/1 35/7/1 36/8/1
f 37/5/1 38/6/1 39/7/1 40/8/1
f 41/5/1 42/6/1 43/7/1 44/8/1
f 45/5/1 46/6/1 47/7/1 48/8/1
f 49/5/1 50/6/1 51/7/1 52/8/1
f 53/9/1 54/10/1 55/11/1 56/12/1
f 57/13/1 58/14/1 59/15/1 60/16/1
f 61/17/1 62/18/1 63/19/1 64/20/1
f 65/21/1 66/22/1 67/23/1 68/24/1
f 69/21/1 70/22/1 71/23/1 72/24/1
f 73/21/1 74/22/1 75/23/1 76/24/1
f 77/21/1 78/22/1 79/23/1 80/24/1
f 81/21/1 82/22/1 83/23/1 84/24/1
f 85/21/1 86/22/1 87/23/1 88/24/1
f 89/21/1 90/22/1 91/23/1 92/24/1
f 93/21/1 94/22/1 95/23/1 96/24/1
f 97/21/1 98/22/1 99/23/1 100/24/1
f 101/21/1 102/22/1 103/23/1 104/24/1
f 105/25/1 106/26/1 107/27/1 108/28/1
f 109/29/1 110/30/1 111/31/1 112/32/1
f 113/33/1 114/34/1 115/35/1 116/36/1
f 117/37/1 118/38/1 119/39/1 120/40/1
f 121/41/1 122/42/1 123/43/1 124/44/1
f 125/41/1 126/42/1 127/43/1 128/44/1
f 129/41/1 130/42/1 131/43/1 132/44/1
f 133/41/1 134/42/1 135/43/1 136/44/1
f 137/41/1 138/42/1 139/43/1 140/44/1
f 141/41/1 142/42/1 143/43/1 144/44/1
f 145/41/1 146/42/1 147/43/1 148/44/1
f 149/41/1 150/42/1 151/43/1 152/44/1
f 153/41/1 154/42/1 155/43/1 156/44/1
f 157/41/1 158/42/1 159/43/1 160/44/1
f 161/45/1 162/46/1 163/47/1 164/48/1
f 165/29/1 166/30/1 167/31/1 168/32/1
f 169/33/1 170/34/1 171/35/1 172/36/1
f 173/29/1 174/30/1 175/31/1 176/32/1
f 177/49/1 178/50/1 179/51/1 180/52/1
f 181/29/1 182/30/1 183/31/1 184/32/1
f 185/53/1 186/54/1 187/55/1 188/56/1
f 189/29/1 190/30/1 191/31/1 192/32/1
f 193/57/1 194/58/1 195/59/1 196/60/1
f 197/61/1 198/62/1 199/63/1 200/64/1
f 201/65/1 202/66/1 203/67/1 204/68/1
f 205/65/1 206/66/1 207/67/1 208/68/1
f 209/65/1 210/66/1 211/67/1 212/68/1
f 213/65/1 214/66/1 215/67/1 216/68/1
f 217/65/1 218/66/1 219/67/1 220/68/1
f 221/65/1 222/66/1 223/67/1 224/68/1
f 225/65/1 226/66/1 227/67/1 228/68/1
f 229/65/1 230/66/1 231/67/1 232/68/1
f 233/69/1 234/70/1 235/71/1 236/72/1
f 237/29/1 238/30/1 239/31/1 240/32/1
f 241/29/1 242/30/1 243/31/1 244/32/1
f 245/73/1 246/74/1 247/75/1 248/76/1
f 249/77/1 250/78/1 251/79/1 252/80/1
f 253/77/1 254/78/1 255/79/1 256/80/1
f 257/77/1 258/78/1 259/79/1 260/80/1
f 261/77/1 262/78/1 263/79/1 264/80/1
f 265/77/1 266/78/1 267/79/1 268/80/1
f 269/77/1 270/78/1 271/79/1 272/80/1
f 273/77/1 274/78/1 275/79/1 276/80/1
f 277/77/1 278/78/1 279/79/1 280/80/1
f 281/81/1 282/82/1 283/83/1 284/84/1
f 285/29/1 286/30/1 287/31/1 288/32/1
f 289/13/1 290/14/1 291/15/1 292/16/1
f 293/73/1 294/74/1 295/75/1 296/76/1
f 297/77/1 298/78/1 299/79/1 300/80/1
f 301/77/1 302/78/1 303/79/1 304/80/1
f 305/77/1 306/78/1 307/79/1 308/80/1
f 309/77/1 310/78/1 311/79/1 312/80/1
f 313/77/1 314/78/1 315/79/1 316/80/1
f 317/77/1 318/78/1 319/79/1 320/80/1
f 321/77/1 322/78/1 323/79/1 324/80/1
f 325/77/1 326/78/1 327/79/1 328/80/1
f 329/81/1 330/82/1 331/83/1 332/84/1
f 333/13/1 334/14/1 335/15/1 336/16/1
f 337/33/1 338/34/1 339/35/1 340/36/1
f 341/73/1 342/74/1 343/75/1 344/76/1
f 345/77/1 346/78/1 347/79/1 348/80/1
f 349/77/1 350/78/1 351/79/1 352/80/1
f 353/77/1 354/78/1 355/79/1 356/80/1
f 357/77/1 358/78/1 359/79/1 360/80/1
f 361/77/1 362/78/1 363/79/1 364/80/1
f 365/77/1 366/78/1 367/79/1 368/80/1
f 369/77/1 370/78/1 371/79/1 372/80/1
f 373/77/1 374/78/1 375/79/1 376/80/1
f 377/81/1 378/82/1 379/83/1 380/84/1
f 381/33/1 382/34/1 383/35/1 384/36/1
f 385/33/1 386/34/1 387/35/1 388/36/1
f 389/85/1 390/86/1 391/87/1 392/88/1
f 393/89/1 394/90/1 395/91/1 396/92/1
f 397/89/1 398/90/1 399/91/1 400/92/1
f 401/89/1 402/90/1 403/91/1 404/92/1
f 405/89/1 406/90/1 407/91/1 408/92/1
f 409/89/1 410/90/1 411/91/1 412/92/1
f 413/89/1 414/90/1 415/91/1 416/92/1
f 417/89/1 418/90/1 419/91/1 420/92/1
f 421/89/1 422/90/1 423/91/1 424/92/1
f 425/93/1 426/94/1 427/95/1 428/96/1
f 429/33/1 430/34/1 431/35/1 432/36/1
f 433/33/1 434/34/1 435/35/1 436/36/1
f 437/33/1 438/34/1 439/35/1 440/36/1

