# Tiled2Unity generated file. Do not modify by hand.
# Wavefront file for 'day-care_mesh_0004.obj'

# Vertices (Count = 8)
v -80 -112 0
v -96 -112 0
v -96 -96 0
v -80 -96 0
v -80 -160 0
v -96 -160 0
v -96 -144 0
v -80 -144 0

# Texture cooridinates (Count = 8)
vt 0.1 0.7058823
vt 0.1313726 0.7058823
vt 0.1313726 0.8
vt 0.1 0.8
vt 0.4333333 0.1058823
vt 0.4647059 0.1058823
vt 0.4647059 0.2
vt 0.4333333 0.2

# Normal
vn 0 0 -1

# Mesh description
g day-care_mesh_0004

# Faces
f 1/1/1 2/2/1 3/3/1 4/4/1
f 5/5/1 6/6/1 7/7/1 8/8/1

