# Tiled2Unity generated file. Do not modify by hand.
# Wavefront file for 'Castle_mesh_0002.obj'

# Vertices (Count = 916)
v -528 -112 0
v -544 -112 0
v -544 -96 0
v -528 -96 0
v -512 -112 0
v -528 -112 0
v -528 -96 0
v -512 -96 0
v -496 -112 0
v -512 -112 0
v -512 -96 0
v -496 -96 0
v -480 -112 0
v -496 -112 0
v -496 -96 0
v -480 -96 0
v -464 -112 0
v -480 -112 0
v -480 -96 0
v -464 -96 0
v -176 -112 0
v -192 -112 0
v -192 -96 0
v -176 -96 0
v -160 -112 0
v -176 -112 0
v -176 -96 0
v -160 -96 0
v -144 -112 0
v -160 -112 0
v -160 -96 0
v -144 -96 0
v -128 -112 0
v -144 -112 0
v -144 -96 0
v -128 -96 0
v -112 -112 0
v -128 -112 0
v -128 -96 0
v -112 -96 0
v -528 -128 0
v -544 -128 0
v -544 -112 0
v -528 -112 0
v -464 -128 0
v -480 -128 0
v -480 -112 0
v -464 -112 0
v -176 -128 0
v -192 -128 0
v -192 -112 0
v -176 -112 0
v -112 -128 0
v -128 -128 0
v -128 -112 0
v -112 -112 0
v -528 -144 0
v -544 -144 0
v -544 -128 0
v -528 -128 0
v -464 -144 0
v -480 -144 0
v -480 -128 0
v -464 -128 0
v -176 -144 0
v -192 -144 0
v -192 -128 0
v -176 -128 0
v -112 -144 0
v -128 -144 0
v -128 -128 0
v -112 -128 0
v -528 -160 0
v -544 -160 0
v -544 -144 0
v -528 -144 0
v -512 -160 0
v -528 -160 0
v -528 -144 0
v -512 -144 0
v -496 -160 0
v -512 -160 0
v -512 -144 0
v -496 -144 0
v -480 -160 0
v -496 -160 0
v -496 -144 0
v -480 -144 0
v -464 -160 0
v -480 -160 0
v -480 -144 0
v -464 -144 0
v -448 -160 0
v -464 -160 0
v -464 -144 0
v -448 -144 0
v -432 -160 0
v -448 -160 0
v -448 -144 0
v -432 -144 0
v -416 -160 0
v -432 -160 0
v -432 -144 0
v -416 -144 0
v -400 -160 0
v -416 -160 0
v -416 -144 0
v -400 -144 0
v -384 -160 0
v -400 -160 0
v -400 -144 0
v -384 -144 0
v -368 -160 0
v -384 -160 0
v -384 -144 0
v -368 -144 0
v -352 -160 0
v -368 -160 0
v -368 -144 0
v -352 -144 0
v -336 -160 0
v -352 -160 0
v -352 -144 0
v -336 -144 0
v -320 -160 0
v -336 -160 0
v -336 -144 0
v -320 -144 0
v -304 -160 0
v -320 -160 0
v -320 -144 0
v -304 -144 0
v -288 -160 0
v -304 -160 0
v -304 -144 0
v -288 -144 0
v -272 -160 0
v -288 -160 0
v -288 -144 0
v -272 -144 0
v -256 -160 0
v -272 -160 0
v -272 -144 0
v -256 -144 0
v -240 -160 0
v -256 -160 0
v -256 -144 0
v -240 -144 0
v -224 -160 0
v -240 -160 0
v -240 -144 0
v -224 -144 0
v -208 -160 0
v -224 -160 0
v -224 -144 0
v -208 -144 0
v -192 -160 0
v -208 -160 0
v -208 -144 0
v -192 -144 0
v -176 -160 0
v -192 -160 0
v -192 -144 0
v -176 -144 0
v -160 -160 0
v -176 -160 0
v -176 -144 0
v -160 -144 0
v -144 -160 0
v -160 -160 0
v -160 -144 0
v -144 -144 0
v -128 -160 0
v -144 -160 0
v -144 -144 0
v -128 -144 0
v -112 -160 0
v -128 -160 0
v -128 -144 0
v -112 -144 0
v -512 -208 0
v -528 -208 0
v -528 -192 0
v -512 -192 0
v -480 -208 0
v -496 -208 0
v -496 -192 0
v -480 -192 0
v -160 -208 0
v -176 -208 0
v -176 -192 0
v -160 -192 0
v -128 -208 0
v -144 -208 0
v -144 -192 0
v -128 -192 0
v -512 -224 0
v -528 -224 0
v -528 -208 0
v -512 -208 0
v -480 -224 0
v -496 -224 0
v -496 -208 0
v -480 -208 0
v -160 -224 0
v -176 -224 0
v -176 -208 0
v -160 -208 0
v -128 -224 0
v -144 -224 0
v -144 -208 0
v -128 -208 0
v -512 -240 0
v -528 -240 0
v -528 -224 0
v -512 -224 0
v -480 -240 0
v -496 -240 0
v -496 -224 0
v -480 -224 0
v -160 -240 0
v -176 -240 0
v -176 -224 0
v -160 -224 0
v -128 -240 0
v -144 -240 0
v -144 -224 0
v -128 -224 0
v -512 -256 0
v -528 -256 0
v -528 -240 0
v -512 -240 0
v -480 -256 0
v -496 -256 0
v -496 -240 0
v -480 -240 0
v -160 -256 0
v -176 -256 0
v -176 -240 0
v -160 -240 0
v -128 -256 0
v -144 -256 0
v -144 -240 0
v -128 -240 0
v -512 -272 0
v -528 -272 0
v -528 -256 0
v -512 -256 0
v -480 -272 0
v -496 -272 0
v -496 -256 0
v -480 -256 0
v -160 -272 0
v -176 -272 0
v -176 -256 0
v -160 -256 0
v -128 -272 0
v -144 -272 0
v -144 -256 0
v -128 -256 0
v -512 -288 0
v -528 -288 0
v -528 -272 0
v -512 -272 0
v -480 -288 0
v -496 -288 0
v -496 -272 0
v -480 -272 0
v -160 -288 0
v -176 -288 0
v -176 -272 0
v -160 -272 0
v -128 -288 0
v -144 -288 0
v -144 -272 0
v -128 -272 0
v -512 -304 0
v -528 -304 0
v -528 -288 0
v -512 -288 0
v -480 -304 0
v -496 -304 0
v -496 -288 0
v -480 -288 0
v -160 -304 0
v -176 -304 0
v -176 -288 0
v -160 -288 0
v -128 -304 0
v -144 -304 0
v -144 -288 0
v -128 -288 0
v -512 -320 0
v -528 -320 0
v -528 -304 0
v -512 -304 0
v -480 -320 0
v -496 -320 0
v -496 -304 0
v -480 -304 0
v -384 -320 0
v -400 -320 0
v -400 -304 0
v -384 -304 0
v -368 -320 0
v -384 -320 0
v -384 -304 0
v -368 -304 0
v -352 -320 0
v -368 -320 0
v -368 -304 0
v -352 -304 0
v -336 -320 0
v -352 -320 0
v -352 -304 0
v -336 -304 0
v -320 -320 0
v -336 -320 0
v -336 -304 0
v -320 -304 0
v -304 -320 0
v -320 -320 0
v -320 -304 0
v -304 -304 0
v -288 -320 0
v -304 -320 0
v -304 -304 0
v -288 -304 0
v -272 -320 0
v -288 -320 0
v -288 -304 0
v -272 -304 0
v -256 -320 0
v -272 -320 0
v -272 -304 0
v -256 -304 0
v -160 -320 0
v -176 -320 0
v -176 -304 0
v -160 -304 0
v -128 -320 0
v -144 -320 0
v -144 -304 0
v -128 -304 0
v -512 -336 0
v -528 -336 0
v -528 -320 0
v -512 -320 0
v -480 -336 0
v -496 -336 0
v -496 -320 0
v -480 -320 0
v -384 -336 0
v -400 -336 0
v -400 -320 0
v -384 -320 0
v -256 -336 0
v -272 -336 0
v -272 -320 0
v -256 -320 0
v -160 -336 0
v -176 -336 0
v -176 -320 0
v -160 -320 0
v -128 -336 0
v -144 -336 0
v -144 -320 0
v -128 -320 0
v -512 -352 0
v -528 -352 0
v -528 -336 0
v -512 -336 0
v -480 -352 0
v -496 -352 0
v -496 -336 0
v -480 -336 0
v -384 -352 0
v -400 -352 0
v -400 -336 0
v -384 -336 0
v -256 -352 0
v -272 -352 0
v -272 -336 0
v -256 -336 0
v -160 -352 0
v -176 -352 0
v -176 -336 0
v -160 -336 0
v -128 -352 0
v -144 -352 0
v -144 -336 0
v -128 -336 0
v -512 -368 0
v -528 -368 0
v -528 -352 0
v -512 -352 0
v -480 -368 0
v -496 -368 0
v -496 -352 0
v -480 -352 0
v -384 -368 0
v -400 -368 0
v -400 -352 0
v -384 -352 0
v -256 -368 0
v -272 -368 0
v -272 -352 0
v -256 -352 0
v -160 -368 0
v -176 -368 0
v -176 -352 0
v -160 -352 0
v -128 -368 0
v -144 -368 0
v -144 -352 0
v -128 -352 0
v -528 -384 0
v -544 -384 0
v -544 -368 0
v -528 -368 0
v -512 -384 0
v -528 -384 0
v -528 -368 0
v -512 -368 0
v -496 -384 0
v -512 -384 0
v -512 -368 0
v -496 -368 0
v -480 -384 0
v -496 -384 0
v -496 -368 0
v -480 -368 0
v -464 -384 0
v -480 -384 0
v -480 -368 0
v -464 -368 0
v -384 -384 0
v -400 -384 0
v -400 -368 0
v -384 -368 0
v -256 -384 0
v -272 -384 0
v -272 -368 0
v -256 -368 0
v -176 -384 0
v -192 -384 0
v -192 -368 0
v -176 -368 0
v -160 -384 0
v -176 -384 0
v -176 -368 0
v -160 -368 0
v -144 -384 0
v -160 -384 0
v -160 -368 0
v -144 -368 0
v -128 -384 0
v -144 -384 0
v -144 -368 0
v -128 -368 0
v -112 -384 0
v -128 -384 0
v -128 -368 0
v -112 -368 0
v -528 -400 0
v -544 -400 0
v -544 -384 0
v -528 -384 0
v -464 -400 0
v -480 -400 0
v -480 -384 0
v -464 -384 0
v -384 -400 0
v -400 -400 0
v -400 -384 0
v -384 -384 0
v -368 -400 0
v -384 -400 0
v -384 -384 0
v -368 -384 0
v -352 -400 0
v -368 -400 0
v -368 -384 0
v -352 -384 0
v -336 -400 0
v -352 -400 0
v -352 -384 0
v -336 -384 0
v -320 -400 0
v -336 -400 0
v -336 -384 0
v -320 -384 0
v -304 -400 0
v -320 -400 0
v -320 -384 0
v -304 -384 0
v -288 -400 0
v -304 -400 0
v -304 -384 0
v -288 -384 0
v -272 -400 0
v -288 -400 0
v -288 -384 0
v -272 -384 0
v -256 -400 0
v -272 -400 0
v -272 -384 0
v -256 -384 0
v -176 -400 0
v -192 -400 0
v -192 -384 0
v -176 -384 0
v -112 -400 0
v -128 -400 0
v -128 -384 0
v -112 -384 0
v -528 -416 0
v -544 -416 0
v -544 -400 0
v -528 -400 0
v -464 -416 0
v -480 -416 0
v -480 -400 0
v -464 -400 0
v -176 -416 0
v -192 -416 0
v -192 -400 0
v -176 -400 0
v -112 -416 0
v -128 -416 0
v -128 -400 0
v -112 -400 0
v -528 -432 0
v -544 -432 0
v -544 -416 0
v -528 -416 0
v -512 -432 0
v -528 -432 0
v -528 -416 0
v -512 -416 0
v -496 -432 0
v -512 -432 0
v -512 -416 0
v -496 -416 0
v -480 -432 0
v -496 -432 0
v -496 -416 0
v -480 -416 0
v -464 -432 0
v -480 -432 0
v -480 -416 0
v -464 -416 0
v -176 -432 0
v -192 -432 0
v -192 -416 0
v -176 -416 0
v -160 -432 0
v -176 -432 0
v -176 -416 0
v -160 -416 0
v -144 -432 0
v -160 -432 0
v -160 -416 0
v -144 -416 0
v -128 -432 0
v -144 -432 0
v -144 -416 0
v -128 -416 0
v -112 -432 0
v -128 -432 0
v -128 -416 0
v -112 -416 0
v -512 -480 0
v -528 -480 0
v -528 -464 0
v -512 -464 0
v -480 -480 0
v -496 -480 0
v -496 -464 0
v -480 -464 0
v -160 -480 0
v -176 -480 0
v -176 -464 0
v -160 -464 0
v -128 -480 0
v -144 -480 0
v -144 -464 0
v -128 -464 0
v -512 -496 0
v -528 -496 0
v -528 -480 0
v -512 -480 0
v -480 -496 0
v -496 -496 0
v -496 -480 0
v -480 -480 0
v -160 -496 0
v -176 -496 0
v -176 -480 0
v -160 -480 0
v -128 -496 0
v -144 -496 0
v -144 -480 0
v -128 -480 0
v -512 -512 0
v -528 -512 0
v -528 -496 0
v -512 -496 0
v -480 -512 0
v -496 -512 0
v -496 -496 0
v -480 -496 0
v -160 -512 0
v -176 -512 0
v -176 -496 0
v -160 -496 0
v -128 -512 0
v -144 -512 0
v -144 -496 0
v -128 -496 0
v -512 -528 0
v -528 -528 0
v -528 -512 0
v -512 -512 0
v -480 -528 0
v -496 -528 0
v -496 -512 0
v -480 -512 0
v -160 -528 0
v -176 -528 0
v -176 -512 0
v -160 -512 0
v -128 -528 0
v -144 -528 0
v -144 -512 0
v -128 -512 0
v -512 -544 0
v -528 -544 0
v -528 -528 0
v -512 -528 0
v -480 -544 0
v -496 -544 0
v -496 -528 0
v -480 -528 0
v -160 -544 0
v -176 -544 0
v -176 -528 0
v -160 -528 0
v -128 -544 0
v -144 -544 0
v -144 -528 0
v -128 -528 0
v -512 -560 0
v -528 -560 0
v -528 -544 0
v -512 -544 0
v -480 -560 0
v -496 -560 0
v -496 -544 0
v -480 -544 0
v -160 -560 0
v -176 -560 0
v -176 -544 0
v -160 -544 0
v -128 -560 0
v -144 -560 0
v -144 -544 0
v -128 -544 0
v -528 -576 0
v -544 -576 0
v -544 -560 0
v -528 -560 0
v -512 -576 0
v -528 -576 0
v -528 -560 0
v -512 -560 0
v -496 -576 0
v -512 -576 0
v -512 -560 0
v -496 -560 0
v -480 -576 0
v -496 -576 0
v -496 -560 0
v -480 -560 0
v -464 -576 0
v -480 -576 0
v -480 -560 0
v -464 -560 0
v -176 -576 0
v -192 -576 0
v -192 -560 0
v -176 -560 0
v -160 -576 0
v -176 -576 0
v -176 -560 0
v -160 -560 0
v -144 -576 0
v -160 -576 0
v -160 -560 0
v -144 -560 0
v -128 -576 0
v -144 -576 0
v -144 -560 0
v -128 -560 0
v -112 -576 0
v -128 -576 0
v -128 -560 0
v -112 -560 0
v -528 -592 0
v -544 -592 0
v -544 -576 0
v -528 -576 0
v -464 -592 0
v -480 -592 0
v -480 -576 0
v -464 -576 0
v -176 -592 0
v -192 -592 0
v -192 -576 0
v -176 -576 0
v -112 -592 0
v -128 -592 0
v -128 -576 0
v -112 -576 0
v -528 -608 0
v -544 -608 0
v -544 -592 0
v -528 -592 0
v -464 -608 0
v -480 -608 0
v -480 -592 0
v -464 -592 0
v -176 -608 0
v -192 -608 0
v -192 -592 0
v -176 -592 0
v -112 -608 0
v -128 -608 0
v -128 -592 0
v -112 -592 0
v -528 -624 0
v -544 -624 0
v -544 -608 0
v -528 -608 0
v -512 -624 0
v -528 -624 0
v -528 -608 0
v -512 -608 0
v -496 -624 0
v -512 -624 0
v -512 -608 0
v -496 -608 0
v -480 -624 0
v -496 -624 0
v -496 -608 0
v -480 -608 0
v -464 -624 0
v -480 -624 0
v -480 -608 0
v -464 -608 0
v -448 -624 0
v -464 -624 0
v -464 -608 0
v -448 -608 0
v -432 -624 0
v -448 -624 0
v -448 -608 0
v -432 -608 0
v -416 -624 0
v -432 -624 0
v -432 -608 0
v -416 -608 0
v -400 -624 0
v -416 -624 0
v -416 -608 0
v -400 -608 0
v -384 -624 0
v -400 -624 0
v -400 -608 0
v -384 -608 0
v -368 -624 0
v -384 -624 0
v -384 -608 0
v -368 -608 0
v -352 -624 0
v -368 -624 0
v -368 -608 0
v -352 -608 0
v -336 -624 0
v -352 -624 0
v -352 -608 0
v -336 -608 0
v -320 -624 0
v -336 -624 0
v -336 -608 0
v -320 -608 0
v -304 -624 0
v -320 -624 0
v -320 -608 0
v -304 -608 0
v -288 -624 0
v -304 -624 0
v -304 -608 0
v -288 -608 0
v -272 -624 0
v -288 -624 0
v -288 -608 0
v -272 -608 0
v -256 -624 0
v -272 -624 0
v -272 -608 0
v -256 -608 0
v -240 -624 0
v -256 -624 0
v -256 -608 0
v -240 -608 0
v -224 -624 0
v -240 -624 0
v -240 -608 0
v -224 -608 0
v -208 -624 0
v -224 -624 0
v -224 -608 0
v -208 -608 0
v -192 -624 0
v -208 -624 0
v -208 -608 0
v -192 -608 0
v -176 -624 0
v -192 -624 0
v -192 -608 0
v -176 -608 0
v -160 -624 0
v -176 -624 0
v -176 -608 0
v -160 -608 0
v -144 -624 0
v -160 -624 0
v -160 -608 0
v -144 -608 0
v -128 -624 0
v -144 -624 0
v -144 -608 0
v -128 -608 0
v -112 -624 0
v -128 -624 0
v -128 -608 0
v -112 -608 0
v -448 -672 0
v -464 -672 0
v -464 -656 0
v -448 -656 0
v -432 -672 0
v -448 -672 0
v -448 -656 0
v -432 -656 0
v -416 -672 0
v -432 -672 0
v -432 -656 0
v -416 -656 0
v -400 -672 0
v -416 -672 0
v -416 -656 0
v -400 -656 0
v -384 -672 0
v -400 -672 0
v -400 -656 0
v -384 -656 0
v -368 -672 0
v -384 -672 0
v -384 -656 0
v -368 -656 0
v -352 -672 0
v -368 -672 0
v -368 -656 0
v -352 -656 0
v -336 -672 0
v -352 -672 0
v -352 -656 0
v -336 -656 0
v -320 -672 0
v -336 -672 0
v -336 -656 0
v -320 -656 0
v -304 -672 0
v -320 -672 0
v -320 -656 0
v -304 -656 0
v -288 -672 0
v -304 -672 0
v -304 -656 0
v -288 -656 0
v -272 -672 0
v -288 -672 0
v -288 -656 0
v -272 -656 0
v -256 -672 0
v -272 -672 0
v -272 -656 0
v -256 -656 0
v -240 -672 0
v -256 -672 0
v -256 -656 0
v -240 -656 0
v -224 -672 0
v -240 -672 0
v -240 -656 0
v -224 -656 0
v -208 -672 0
v -224 -672 0
v -224 -656 0
v -208 -656 0
v -192 -672 0
v -208 -672 0
v -208 -656 0
v -192 -656 0

# Texture cooridinates (Count = 40)
vt 0.9333333 0.9058824
vt 0.9647059 0.9058824
vt 0.9647059 1
vt 0.9333333 1
vt 0.9 0.9058824
vt 0.9313725 0.9058824
vt 0.9313725 1
vt 0.9 1
vt 0.8666667 0.9058824
vt 0.8980392 0.9058824
vt 0.8980392 1
vt 0.8666667 1
vt 0.9333333 0.8058823
vt 0.9647059 0.8058823
vt 0.9647059 0.9
vt 0.9333333 0.9
vt 0.8666667 0.8058823
vt 0.8980392 0.8058823
vt 0.8980392 0.9
vt 0.8666667 0.9
vt 0.9333333 0.7058823
vt 0.9647059 0.7058823
vt 0.9647059 0.8
vt 0.9333333 0.8
vt 0.9 0.7058823
vt 0.9313725 0.7058823
vt 0.9313725 0.8
vt 0.9 0.8
vt 0.8666667 0.7058823
vt 0.8980392 0.7058823
vt 0.8980392 0.8
vt 0.8666667 0.8
vt 0.8333333 0.7058823
vt 0.8647059 0.7058823
vt 0.8647059 0.8
vt 0.8333333 0.8
vt 0.8 0.7058823
vt 0.8313726 0.7058823
vt 0.8313726 0.8
vt 0.8 0.8

# Normal
vn 0 0 -1

# Mesh description
g Castle_mesh_0002

# Faces
f 1/1/1 2/2/1 3/3/1 4/4/1
f 5/5/1 6/6/1 7/7/1 8/8/1
f 9/5/1 10/6/1 11/7/1 12/8/1
f 13/5/1 14/6/1 15/7/1 16/8/1
f 17/9/1 18/10/1 19/11/1 20/12/1
f 21/1/1 22/2/1 23/3/1 24/4/1
f 25/5/1 26/6/1 27/7/1 28/8/1
f 29/5/1 30/6/1 31/7/1 32/8/1
f 33/5/1 34/6/1 35/7/1 36/8/1
f 37/9/1 38/10/1 39/11/1 40/12/1
f 41/13/1 42/14/1 43/15/1 44/16/1
f 45/17/1 46/18/1 47/19/1 48/20/1
f 49/13/1 50/14/1 51/15/1 52/16/1
f 53/17/1 54/18/1 55/19/1 56/20/1
f 57/13/1 58/14/1 59/15/1 60/16/1
f 61/17/1 62/18/1 63/19/1 64/20/1
f 65/13/1 66/14/1 67/15/1 68/16/1
f 69/17/1 70/18/1 71/19/1 72/20/1
f 73/21/1 74/22/1 75/23/1 76/24/1
f 77/25/1 78/26/1 79/27/1 80/28/1
f 81/25/1 82/26/1 83/27/1 84/28/1
f 85/25/1 86/26/1 87/27/1 88/28/1
f 89/29/1 90/30/1 91/31/1 92/32/1
f 93/5/1 94/6/1 95/7/1 96/8/1
f 97/5/1 98/6/1 99/7/1 100/8/1
f 101/5/1 102/6/1 103/7/1 104/8/1
f 105/5/1 106/6/1 107/7/1 108/8/1
f 109/5/1 110/6/1 111/7/1 112/8/1
f 113/5/1 114/6/1 115/7/1 116/8/1
f 117/5/1 118/6/1 119/7/1 120/8/1
f 121/5/1 122/6/1 123/7/1 124/8/1
f 125/5/1 126/6/1 127/7/1 128/8/1
f 129/5/1 130/6/1 131/7/1 132/8/1
f 133/5/1 134/6/1 135/7/1 136/8/1
f 137/5/1 138/6/1 139/7/1 140/8/1
f 141/5/1 142/6/1 143/7/1 144/8/1
f 145/5/1 146/6/1 147/7/1 148/8/1
f 149/5/1 150/6/1 151/7/1 152/8/1
f 153/5/1 154/6/1 155/7/1 156/8/1
f 157/5/1 158/6/1 159/7/1 160/8/1
f 161/21/1 162/22/1 163/23/1 164/24/1
f 165/25/1 166/26/1 167/27/1 168/28/1
f 169/25/1 170/26/1 171/27/1 172/28/1
f 173/25/1 174/26/1 175/27/1 176/28/1
f 177/29/1 178/30/1 179/31/1 180/32/1
f 181/33/1 182/34/1 183/35/1 184/36/1
f 185/37/1 186/38/1 187/39/1 188/40/1
f 189/33/1 190/34/1 191/35/1 192/36/1
f 193/37/1 194/38/1 195/39/1 196/40/1
f 197/13/1 198/14/1 199/15/1 200/16/1
f 201/17/1 202/18/1 203/19/1 204/20/1
f 205/13/1 206/14/1 207/15/1 208/16/1
f 209/17/1 210/18/1 211/19/1 212/20/1
f 213/13/1 214/14/1 215/15/1 216/16/1
f 217/17/1 218/18/1 219/19/1 220/20/1
f 221/13/1 222/14/1 223/15/1 224/16/1
f 225/17/1 226/18/1 227/19/1 228/20/1
f 229/13/1 230/14/1 231/15/1 232/16/1
f 233/17/1 234/18/1 235/19/1 236/20/1
f 237/13/1 238/14/1 239/15/1 240/16/1
f 241/17/1 242/18/1 243/19/1 244/20/1
f 245/13/1 246/14/1 247/15/1 248/16/1
f 249/17/1 250/18/1 251/19/1 252/20/1
f 253/13/1 254/14/1 255/15/1 256/16/1
f 257/17/1 258/18/1 259/19/1 260/20/1
f 261/13/1 262/14/1 263/15/1 264/16/1
f 265/17/1 266/18/1 267/19/1 268/20/1
f 269/13/1 270/14/1 271/15/1 272/16/1
f 273/17/1 274/18/1 275/19/1 276/20/1
f 277/13/1 278/14/1 279/15/1 280/16/1
f 281/17/1 282/18/1 283/19/1 284/20/1
f 285/13/1 286/14/1 287/15/1 288/16/1
f 289/17/1 290/18/1 291/19/1 292/20/1
f 293/13/1 294/14/1 295/15/1 296/16/1
f 297/17/1 298/18/1 299/19/1 300/20/1
f 301/1/1 302/2/1 303/3/1 304/4/1
f 305/5/1 306/6/1 307/7/1 308/8/1
f 309/5/1 310/6/1 311/7/1 312/8/1
f 313/5/1 314/6/1 315/7/1 316/8/1
f 317/5/1 318/6/1 319/7/1 320/8/1
f 321/5/1 322/6/1 323/7/1 324/8/1
f 325/5/1 326/6/1 327/7/1 328/8/1
f 329/5/1 330/6/1 331/7/1 332/8/1
f 333/9/1 334/10/1 335/11/1 336/12/1
f 337/13/1 338/14/1 339/15/1 340/16/1
f 341/17/1 342/18/1 343/19/1 344/20/1
f 345/13/1 346/14/1 347/15/1 348/16/1
f 349/17/1 350/18/1 351/19/1 352/20/1
f 353/13/1 354/14/1 355/15/1 356/16/1
f 357/17/1 358/18/1 359/19/1 360/20/1
f 361/13/1 362/14/1 363/15/1 364/16/1
f 365/17/1 366/18/1 367/19/1 368/20/1
f 369/13/1 370/14/1 371/15/1 372/16/1
f 373/17/1 374/18/1 375/19/1 376/20/1
f 377/13/1 378/14/1 379/15/1 380/16/1
f 381/17/1 382/18/1 383/19/1 384/20/1
f 385/13/1 386/14/1 387/15/1 388/16/1
f 389/17/1 390/18/1 391/19/1 392/20/1
f 393/13/1 394/14/1 395/15/1 396/16/1
f 397/17/1 398/18/1 399/19/1 400/20/1
f 401/13/1 402/14/1 403/15/1 404/16/1
f 405/17/1 406/18/1 407/19/1 408/20/1
f 409/13/1 410/14/1 411/15/1 412/16/1
f 413/17/1 414/18/1 415/19/1 416/20/1
f 417/1/1 418/2/1 419/3/1 420/4/1
f 421/13/1 422/14/1 423/15/1 424/16/1
f 425/5/1 426/6/1 427/7/1 428/8/1
f 429/17/1 430/18/1 431/19/1 432/20/1
f 433/9/1 434/10/1 435/11/1 436/12/1
f 437/13/1 438/14/1 439/15/1 440/16/1
f 441/17/1 442/18/1 443/19/1 444/20/1
f 445/1/1 446/2/1 447/3/1 448/4/1
f 449/13/1 450/14/1 451/15/1 452/16/1
f 453/5/1 454/6/1 455/7/1 456/8/1
f 457/17/1 458/18/1 459/19/1 460/20/1
f 461/9/1 462/10/1 463/11/1 464/12/1
f 465/13/1 466/14/1 467/15/1 468/16/1
f 469/17/1 470/18/1 471/19/1 472/20/1
f 473/21/1 474/22/1 475/23/1 476/24/1
f 477/25/1 478/26/1 479/27/1 480/28/1
f 481/25/1 482/26/1 483/27/1 484/28/1
f 485/25/1 486/26/1 487/27/1 488/28/1
f 489/25/1 490/26/1 491/27/1 492/28/1
f 493/25/1 494/26/1 495/27/1 496/28/1
f 497/25/1 498/26/1 499/27/1 500/28/1
f 501/25/1 502/26/1 503/27/1 504/28/1
f 505/29/1 506/30/1 507/31/1 508/32/1
f 509/13/1 510/14/1 511/15/1 512/16/1
f 513/17/1 514/18/1 515/19/1 516/20/1
f 517/13/1 518/14/1 519/15/1 520/16/1
f 521/17/1 522/18/1 523/19/1 524/20/1
f 525/13/1 526/14/1 527/15/1 528/16/1
f 529/17/1 530/18/1 531/19/1 532/20/1
f 533/21/1 534/22/1 535/23/1 536/24/1
f 537/25/1 538/26/1 539/27/1 540/28/1
f 541/25/1 542/26/1 543/27/1 544/28/1
f 545/25/1 546/26/1 547/27/1 548/28/1
f 549/29/1 550/30/1 551/31/1 552/32/1
f 553/21/1 554/22/1 555/23/1 556/24/1
f 557/25/1 558/26/1 559/27/1 560/28/1
f 561/25/1 562/26/1 563/27/1 564/28/1
f 565/25/1 566/26/1 567/27/1 568/28/1
f 569/29/1 570/30/1 571/31/1 572/32/1
f 573/33/1 574/34/1 575/35/1 576/36/1
f 577/37/1 578/38/1 579/39/1 580/40/1
f 581/33/1 582/34/1 583/35/1 584/36/1
f 585/37/1 586/38/1 587/39/1 588/40/1
f 589/13/1 590/14/1 591/15/1 592/16/1
f 593/17/1 594/18/1 595/19/1 596/20/1
f 597/13/1 598/14/1 599/15/1 600/16/1
f 601/17/1 602/18/1 603/19/1 604/20/1
f 605/13/1 606/14/1 607/15/1 608/16/1
f 609/17/1 610/18/1 611/19/1 612/20/1
f 613/13/1 614/14/1 615/15/1 616/16/1
f 617/17/1 618/18/1 619/19/1 620/20/1
f 621/13/1 622/14/1 623/15/1 624/16/1
f 625/17/1 626/18/1 627/19/1 628/20/1
f 629/13/1 630/14/1 631/15/1 632/16/1
f 633/17/1 634/18/1 635/19/1 636/20/1
f 637/13/1 638/14/1 639/15/1 640/16/1
f 641/17/1 642/18/1 643/19/1 644/20/1
f 645/13/1 646/14/1 647/15/1 648/16/1
f 649/17/1 650/18/1 651/19/1 652/20/1
f 653/13/1 654/14/1 655/15/1 656/16/1
f 657/17/1 658/18/1 659/19/1 660/20/1
f 661/13/1 662/14/1 663/15/1 664/16/1
f 665/17/1 666/18/1 667/19/1 668/20/1
f 669/1/1 670/2/1 671/3/1 672/4/1
f 673/13/1 674/14/1 675/15/1 676/16/1
f 677/5/1 678/6/1 679/7/1 680/8/1
f 681/17/1 682/18/1 683/19/1 684/20/1
f 685/9/1 686/10/1 687/11/1 688/12/1
f 689/1/1 690/2/1 691/3/1 692/4/1
f 693/13/1 694/14/1 695/15/1 696/16/1
f 697/5/1 698/6/1 699/7/1 700/8/1
f 701/17/1 702/18/1 703/19/1 704/20/1
f 705/9/1 706/10/1 707/11/1 708/12/1
f 709/13/1 710/14/1 711/15/1 712/16/1
f 713/17/1 714/18/1 715/19/1 716/20/1
f 717/13/1 718/14/1 719/15/1 720/16/1
f 721/17/1 722/18/1 723/19/1 724/20/1
f 725/13/1 726/14/1 727/15/1 728/16/1
f 729/17/1 730/18/1 731/19/1 732/20/1
f 733/13/1 734/14/1 735/15/1 736/16/1
f 737/17/1 738/18/1 739/19/1 740/20/1
f 741/21/1 742/22/1 743/23/1 744/24/1
f 745/25/1 746/26/1 747/27/1 748/28/1
f 749/25/1 750/26/1 751/27/1 752/28/1
f 753/25/1 754/26/1 755/27/1 756/28/1
f 757/29/1 758/30/1 759/31/1 760/32/1
f 761/5/1 762/6/1 763/7/1 764/8/1
f 765/5/1 766/6/1 767/7/1 768/8/1
f 769/5/1 770/6/1 771/7/1 772/8/1
f 773/5/1 774/6/1 775/7/1 776/8/1
f 777/5/1 778/6/1 779/7/1 780/8/1
f 781/5/1 782/6/1 783/7/1 784/8/1
f 785/5/1 786/6/1 787/7/1 788/8/1
f 789/5/1 790/6/1 791/7/1 792/8/1
f 793/5/1 794/6/1 795/7/1 796/8/1
f 797/5/1 798/6/1 799/7/1 800/8/1
f 801/5/1 802/6/1 803/7/1 804/8/1
f 805/5/1 806/6/1 807/7/1 808/8/1
f 809/5/1 810/6/1 811/7/1 812/8/1
f 813/5/1 814/6/1 815/7/1 816/8/1
f 817/5/1 818/6/1 819/7/1 820/8/1
f 821/5/1 822/6/1 823/7/1 824/8/1
f 825/5/1 826/6/1 827/7/1 828/8/1
f 829/21/1 830/22/1 831/23/1 832/24/1
f 833/25/1 834/26/1 835/27/1 836/28/1
f 837/25/1 838/26/1 839/27/1 840/28/1
f 841/25/1 842/26/1 843/27/1 844/28/1
f 845/29/1 846/30/1 847/31/1 848/32/1
f 849/25/1 850/26/1 851/27/1 852/28/1
f 853/25/1 854/26/1 855/27/1 856/28/1
f 857/25/1 858/26/1 859/27/1 860/28/1
f 861/25/1 862/26/1 863/27/1 864/28/1
f 865/25/1 866/26/1 867/27/1 868/28/1
f 869/25/1 870/26/1 871/27/1 872/28/1
f 873/25/1 874/26/1 875/27/1 876/28/1
f 877/25/1 878/26/1 879/27/1 880/28/1
f 881/25/1 882/26/1 883/27/1 884/28/1
f 885/25/1 886/26/1 887/27/1 888/28/1
f 889/25/1 890/26/1 891/27/1 892/28/1
f 893/25/1 894/26/1 895/27/1 896/28/1
f 897/25/1 898/26/1 899/27/1 900/28/1
f 901/25/1 902/26/1 903/27/1 904/28/1
f 905/25/1 906/26/1 907/27/1 908/28/1
f 909/25/1 910/26/1 911/27/1 912/28/1
f 913/25/1 914/26/1 915/27/1 916/28/1

