# Tiled2Unity generated file. Do not modify by hand.
# Wavefront file for 'shop_mesh_0003.obj'

# Vertices (Count = 112)
v -96 -64 0
v -112 -64 0
v -112 -48 0
v -96 -48 0
v -80 -64 0
v -96 -64 0
v -96 -48 0
v -80 -48 0
v -64 -64 0
v -80 -64 0
v -80 -48 0
v -64 -48 0
v -48 -64 0
v -64 -64 0
v -64 -48 0
v -48 -48 0
v -32 -64 0
v -48 -64 0
v -48 -48 0
v -32 -48 0
v -144 -80 0
v -160 -80 0
v -160 -64 0
v -144 -64 0
v -128 -80 0
v -144 -80 0
v -144 -64 0
v -128 -64 0
v -112 -80 0
v -128 -80 0
v -128 -64 0
v -112 -64 0
v -80 -80 0
v -96 -80 0
v -96 -64 0
v -80 -64 0
v -64 -80 0
v -80 -80 0
v -80 -64 0
v -64 -64 0
v -48 -80 0
v -64 -80 0
v -64 -64 0
v -48 -64 0
v -32 -80 0
v -48 -80 0
v -48 -64 0
v -32 -64 0
v -16 -80 0
v -32 -80 0
v -32 -64 0
v -16 -64 0
v -144 -112 0
v -160 -112 0
v -160 -96 0
v -144 -96 0
v -128 -112 0
v -144 -112 0
v -144 -96 0
v -128 -96 0
v -112 -112 0
v -128 -112 0
v -128 -96 0
v -112 -96 0
v -96 -112 0
v -112 -112 0
v -112 -96 0
v -96 -96 0
v -80 -112 0
v -96 -112 0
v -96 -96 0
v -80 -96 0
v -64 -112 0
v -80 -112 0
v -80 -96 0
v -64 -96 0
v -48 -112 0
v -64 -112 0
v -64 -96 0
v -48 -96 0
v -32 -112 0
v -48 -112 0
v -48 -96 0
v -32 -96 0
v -16 -112 0
v -32 -112 0
v -32 -96 0
v -16 -96 0
v -144 -128 0
v -160 -128 0
v -160 -112 0
v -144 -112 0
v -48 -128 0
v -64 -128 0
v -64 -112 0
v -48 -112 0
v -32 -128 0
v -48 -128 0
v -48 -112 0
v -32 -112 0
v -16 -128 0
v -32 -128 0
v -32 -112 0
v -16 -112 0
v -144 -144 0
v -160 -144 0
v -160 -128 0
v -144 -128 0
v -144 -160 0
v -160 -160 0
v -160 -144 0
v -144 -144 0

# Texture cooridinates (Count = 92)
vt 0.9483471 0.7110266
vt 0.9648761 0.7110266
vt 0.9648761 0.7414448
vt 0.9483471 0.7414448
vt 0.1931818 0.7756654
vt 0.2097107 0.7756654
vt 0.2097107 0.8060837
vt 0.1931818 0.8060837
vt 0.1931818 0.8403042
vt 0.2097107 0.8403042
vt 0.2097107 0.8707224
vt 0.1931818 0.8707224
vt 0.2107438 0.8403042
vt 0.2272727 0.8403042
vt 0.2272727 0.8707224
vt 0.2107438 0.8707224
vt 0.1931818 0.8079848
vt 0.2097107 0.8079848
vt 0.2097107 0.838403
vt 0.1931818 0.838403
vt 0.7551653 0.6140684
vt 0.7716942 0.6140684
vt 0.7716942 0.6444867
vt 0.7551653 0.6444867
vt 0.2634298 0.9695817
vt 0.2799587 0.9695817
vt 0.2799587 1
vt 0.2634298 1
vt 0.2107438 0.7756654
vt 0.2272727 0.7756654
vt 0.2272727 0.8060837
vt 0.2107438 0.8060837
vt 0.1756198 0.8403042
vt 0.1921488 0.8403042
vt 0.1921488 0.8707224
vt 0.1756198 0.8707224
vt 0.2283058 0.8403042
vt 0.2448347 0.8403042
vt 0.2448347 0.8707224
vt 0.2283058 0.8707224
vt 0.2283058 0.8079848
vt 0.2448347 0.8079848
vt 0.2448347 0.838403
vt 0.2283058 0.838403
vt 0.2634298 0.743346
vt 0.2799587 0.743346
vt 0.2799587 0.7737643
vt 0.2634298 0.7737643
vt 0.3863636 0.4524715
vt 0.4028926 0.4524715
vt 0.4028926 0.4828897
vt 0.3863636 0.4828897
vt 0.8078513 0.2262357
vt 0.8243802 0.2262357
vt 0.8243802 0.256654
vt 0.8078513 0.256654
vt 0.4039256 0.4524715
vt 0.4204545 0.4524715
vt 0.4204545 0.4828897
vt 0.4039256 0.4828897
vt 0.3512397 0.4524715
vt 0.3677686 0.4524715
vt 0.3677686 0.4828897
vt 0.3512397 0.4828897
vt 0.3688017 0.4524715
vt 0.3853306 0.4524715
vt 0.3853306 0.4828897
vt 0.3688017 0.4828897
vt 0.2283058 0.743346
vt 0.2448347 0.743346
vt 0.2448347 0.7737643
vt 0.2283058 0.7737643
vt 0.2985537 0.7756654
vt 0.3150826 0.7756654
vt 0.3150826 0.8060837
vt 0.2985537 0.8060837
vt 0.2809917 0.7756654
vt 0.2975207 0.7756654
vt 0.2975207 0.8060837
vt 0.2809917 0.8060837
vt 0.2634298 0.7756654
vt 0.2799587 0.7756654
vt 0.2799587 0.8060837
vt 0.2634298 0.8060837
vt 0.2458678 0.743346
vt 0.2623967 0.743346
vt 0.2623967 0.7737643
vt 0.2458678 0.7737643
vt 0.2458678 0.7756654
vt 0.2623967 0.7756654
vt 0.2623967 0.8060837
vt 0.2458678 0.8060837

# Normal
vn 0 0 -1

# Mesh description
g shop_mesh_0003

# Faces
f 1/1/1 2/2/1 3/3/1 4/4/1
f 5/5/1 6/6/1 7/7/1 8/8/1
f 9/9/1 10/10/1 11/11/1 12/12/1
f 13/13/1 14/14/1 15/15/1 16/16/1
f 17/17/1 18/18/1 19/19/1 20/20/1
f 21/21/1 22/22/1 23/23/1 24/24/1
f 25/21/1 26/22/1 27/23/1 28/24/1
f 29/25/1 30/26/1 31/27/1 32/28/1
f 33/29/1 34/30/1 35/31/1 36/32/1
f 37/33/1 38/34/1 39/35/1 40/36/1
f 41/37/1 42/38/1 43/39/1 44/40/1
f 45/41/1 46/42/1 47/43/1 48/44/1
f 49/45/1 50/46/1 51/47/1 52/48/1
f 53/49/1 54/50/1 55/51/1 56/52/1
f 57/53/1 58/54/1 59/55/1 60/56/1
f 61/57/1 62/58/1 63/59/1 64/60/1
f 65/61/1 66/62/1 67/63/1 68/64/1
f 69/61/1 70/62/1 71/63/1 72/64/1
f 73/61/1 74/62/1 75/63/1 76/64/1
f 77/61/1 78/62/1 79/63/1 80/64/1
f 81/61/1 82/62/1 83/63/1 84/64/1
f 85/65/1 86/66/1 87/67/1 88/68/1
f 89/69/1 90/70/1 91/71/1 92/72/1
f 93/73/1 94/74/1 95/75/1 96/76/1
f 97/77/1 98/78/1 99/79/1 100/80/1
f 101/81/1 102/82/1 103/83/1 104/84/1
f 105/85/1 106/86/1 107/87/1 108/88/1
f 109/89/1 110/90/1 111/91/1 112/92/1

